<svg width="487" height="333" viewBox="0 0 487 333" fill="none" xmlns="http://www.w3.org/2000/svg">
<g clip-path="url(#clip0_504_684)">
<rect width="486.41" height="332.699" transform="translate(0.295135)" fill="#E5E3DC"/>
<path d="M246.706 93.5086C242.369 86.1197 237.23 78.2307 229.181 75.818C219.861 73.024 210.286 78.5744 202.165 84.0515C177.876 100.432 154.487 118.183 132.102 137.225L132.127 137.512C149.554 136.274 166.981 135.036 184.408 133.798C196.999 132.903 210.023 131.886 221.15 125.75C225.373 123.422 229.489 120.312 234.273 120.095C240.218 119.826 245.401 124.102 249.474 128.57C273.569 154.999 280.541 195.416 307.573 218.636C290.528 175.335 270.175 133.494 246.706 93.5086V93.5086Z" fill="#C4EBAD"/>
<path d="M394.813 317.675C392.148 314.209 391.06 313.397 388.431 309.9C367.031 281.389 346.916 251.916 328.087 221.479C315.298 200.808 303.143 179.74 291.622 158.274C286.137 148.069 280.803 137.785 275.618 127.42C271.596 119.383 267.663 111.298 263.819 103.165C262.72 100.842 261.652 98.5085 260.59 96.1695C258.086 90.6693 255.628 85.1423 252.99 79.7168C249.983 73.5331 246.323 67.0502 240.801 62.8957C238.289 60.9274 235.284 59.7364 232.139 59.462C227.644 59.163 223.497 61.0747 219.598 63.1627C191.075 78.4833 164.371 97.6915 140.218 119.548C116.003 141.454 94.3591 166.203 75.7269 193.289C75.1569 194.127 73.8089 193.326 74.3843 192.483C76.6499 189.183 78.9603 185.918 81.3156 182.689C110.602 142.567 146.513 108.064 187.404 80.7581C194.284 76.1657 201.293 71.7886 208.431 67.6269C212.029 65.5283 215.643 63.4564 219.318 61.5126C222.921 59.6062 226.747 57.892 230.863 57.828C244.871 57.6037 252.124 73.9442 257.106 84.9394C258.671 88.3998 260.256 91.8494 261.86 95.2884C267.92 108.345 274.213 121.282 280.74 134.1C284.768 142.014 288.885 149.882 293.089 157.703C306.174 182.059 320.081 205.922 334.811 229.292C354.325 260.248 373.682 287.594 395.912 316.543C396.524 317.344 395.43 318.487 394.813 317.675Z" fill="#C4EBAD"/>
<path d="M138.834 111.479C138.02 110.545 137.211 109.61 136.392 108.676C129.933 101.317 123.002 94.0441 114.131 89.8254C109.902 87.7504 105.285 86.648 100.601 86.5947C95.7587 86.6107 91.0256 87.919 86.5517 89.7507C84.4365 90.6211 82.3679 91.609 80.3307 92.661C78.0029 93.8678 75.7166 95.1548 73.4409 96.4524C69.169 98.8875 64.9526 101.429 60.7916 104.078C52.5123 109.349 44.4924 115.022 36.7317 121.097C32.7087 124.247 28.7687 127.501 24.9117 130.858C21.3243 133.977 17.8094 137.179 14.3671 140.465C13.631 141.165 12.5319 140.033 13.268 139.333C14.1752 138.463 15.0929 137.598 16.0105 136.743C18.6026 134.329 21.2362 131.962 23.9113 129.641C28.7894 125.401 33.7939 121.325 38.9246 117.412C46.9031 111.324 55.1563 105.65 63.6841 100.388C67.9456 97.7607 72.2658 95.2438 76.6446 92.8372C77.9667 92.111 79.3042 91.4007 80.6572 90.7279C83.7273 89.1327 86.9173 87.7951 90.1961 86.7282C94.8407 85.1805 99.7547 84.6832 104.603 85.2703C109.284 85.9717 113.794 87.5788 117.895 90.007C126.605 95.0213 133.359 102.775 139.933 110.342C140.597 111.111 139.503 112.248 138.834 111.479Z" fill="#C4EBAD"/>
<path d="M317.285 187.734L338.155 179.871L348.517 175.967C351.892 174.696 355.258 173.249 358.747 172.338C361.779 171.446 364.998 171.488 368.006 172.46C370.689 173.483 373.145 175.051 375.228 177.071C377.356 179.09 379.336 181.268 381.152 183.587C383.408 186.38 385.631 189.202 387.863 192.015C397.078 203.623 406.232 215.281 415.326 226.989C424.42 238.698 433.453 250.456 442.425 262.264C451.419 274.101 460.351 285.987 469.222 297.923C470.308 299.385 471.394 300.848 472.479 302.311C473.078 303.12 474.43 302.323 473.822 301.503C464.886 289.447 455.888 277.441 446.827 265.483C437.745 253.498 428.599 241.563 419.391 229.679C410.183 217.795 400.913 205.963 391.58 194.182C389.255 191.247 386.926 188.316 384.594 185.387C382.626 182.917 380.681 180.42 378.522 178.121C374.561 173.9 369.611 170.171 363.687 170.07C360.203 170.01 356.832 171.149 353.596 172.355C350.107 173.655 346.626 174.979 343.142 176.292L322.126 184.21L316.872 186.189C315.94 186.541 316.342 188.089 317.285 187.734L317.285 187.734Z" fill="#C4EBAD"/>
<path d="M111.385 99.0849C100.779 93.4703 87.1975 94.57 77.4517 101.585C96.041 104.888 114.427 109.308 132.515 114.823C125.004 110.288 119.128 103.184 111.385 99.0849Z" fill="#C4EBAD"/>
<path d="M77.3473 101.565L75.3056 103.275C75.9962 102.677 76.7142 102.116 77.4517 101.585C77.4169 101.579 77.3821 101.572 77.3473 101.565Z" fill="#C4EBAD"/>
<path d="M374.443 187.813C372.388 185.237 370.167 182.54 367.094 181.494L364.225 181.61C386.064 221.36 415.559 256.093 450.899 283.678C425.414 251.723 399.928 219.768 374.443 187.813Z" fill="#C4EBAD"/>
<path d="M196.045 166.563C197.372 171.531 200.363 175.856 204.489 178.772C206.083 179.89 207.97 180.963 208.516 182.869C208.803 184.085 208.626 185.367 208.022 186.452C207.419 187.523 206.685 188.51 205.838 189.388L205.761 189.687C201.803 187.271 198.038 184.215 195.852 180.045C193.666 175.876 193.361 170.411 196.045 166.563" fill="#C4EBAD"/>
<path d="M327.808 284.812C329.135 289.781 332.126 294.106 336.252 297.021C337.846 298.14 339.733 299.213 340.279 301.119C340.566 302.334 340.389 303.616 339.785 304.701C339.182 305.772 338.448 306.759 337.601 307.638L337.524 307.936C333.566 305.52 329.801 302.464 327.615 298.295C325.429 294.125 325.124 288.661 327.808 284.812" fill="#C4EBAD"/>
<path d="M64.8474 276.658C66.1751 281.626 69.166 285.951 73.2911 288.866C74.8859 289.985 76.7728 291.058 77.3184 292.964C77.6054 294.179 77.4285 295.462 76.8243 296.546C76.2212 297.617 75.4874 298.604 74.6408 299.483L74.5635 299.781C70.6058 297.366 66.8407 294.31 64.6545 290.14C62.4684 285.971 62.1632 280.506 64.8475 276.658" fill="#C4EBAD"/>
<path d="M367.449 59.416C383.378 59.416 396.29 46.1153 396.29 29.708C396.29 13.3007 383.378 0 367.449 0C351.521 0 338.609 13.3007 338.609 29.708C338.609 46.1153 351.521 59.416 367.449 59.416Z" fill="#3A5A40"/>
<path d="M419.496 6.9147C405.519 4.96857 389.561 12.7507 385.938 26.792C385.025 24.2954 383.365 22.1625 381.198 20.7013C379.032 19.2401 376.47 18.5263 373.883 18.663C371.297 18.7997 368.819 19.7799 366.809 21.4619C364.799 23.1439 363.36 25.4406 362.7 28.0203L364.3 29.2009C394.253 35.8731 425.26 35.7287 455.153 28.7778C445.431 18.2524 433.474 8.8608 419.496 6.9147Z" fill="#C4EBAD"/>
<path d="M359.552 46.5251C345.575 44.5789 329.617 52.361 325.994 66.4023C325.082 63.9058 323.422 61.7729 321.255 60.3116C319.088 58.8504 316.526 58.1366 313.94 58.2733C311.353 58.4101 308.876 59.3902 306.865 61.0722C304.855 62.7542 303.416 65.051 302.756 67.6307L304.356 68.8112C334.31 75.4835 365.316 75.3391 395.21 68.3881C385.487 57.8628 373.53 48.4711 359.552 46.5251Z" fill="#C4EBAD"/>
<path d="M481.547 54.015C481.489 54.0151 481.432 54.0059 481.377 53.9877C331.853 5.27927 200.069 11.6488 115.845 25.5693C104.383 27.463 92.8902 29.6502 81.6861 32.0707C78.8257 32.6879 75.8581 33.3495 72.866 34.0384C69.2927 34.8581 65.7668 35.7023 62.3859 36.5465C60.9258 36.9026 59.4942 37.2616 58.0911 37.6234C55.9657 38.1638 53.8092 38.7269 51.4975 39.3458C48.9143 40.0319 46.2897 40.7515 43.695 41.4847C43.6855 41.4882 43.6758 41.491 43.666 41.4933L43.6662 41.4939C40.7354 42.3181 37.8201 43.1663 35.0009 44.0133C33.475 44.4673 32.0016 44.915 30.5903 45.357C30.4326 45.4019 30.2929 45.4451 30.1513 45.4895L29.8481 45.5845C29.6724 45.6397 29.499 45.6937 29.3256 45.7449L29.3146 45.7483L29.3149 45.7489L28.8559 45.8957C28.3087 46.0664 27.7746 46.2331 27.2494 46.3992C13.3691 50.8067 5.73866 53.9422 5.66328 53.9729C5.59434 54.0014 5.52065 54.0156 5.44639 54.0147C5.37213 54.0138 5.29876 53.9979 5.23048 53.9678C5.1622 53.9377 5.10034 53.8941 5.04843 53.8394C4.99652 53.7847 4.95558 53.72 4.92795 53.649C4.90032 53.578 4.88655 53.502 4.8874 53.4255C4.88825 53.349 4.90372 53.2735 4.93292 53.2032C4.96213 53.1328 5.00449 53.0691 5.0576 53.0156C5.11071 52.9622 5.17353 52.92 5.24246 52.8915C5.3184 52.8608 12.9861 49.7093 26.917 45.2853C27.4441 45.1187 27.9795 44.952 28.5285 44.7808L28.9548 44.6442C28.9694 44.6386 28.9841 44.634 28.999 44.6294C29.1716 44.5788 29.3439 44.5248 29.5189 44.4702L29.8227 44.3752C29.974 44.328 30.1231 44.2813 30.2758 44.2381C31.6774 43.7989 33.1558 43.3501 34.6855 42.8944C37.5059 42.0468 40.424 41.1987 43.357 40.3733C43.3661 40.3698 43.3755 40.3676 43.3846 40.3647V40.3641C45.9885 39.6286 48.6227 38.9062 51.2142 38.2178C53.5295 37.5984 55.6901 37.0341 57.8191 36.4925C59.2282 36.1313 60.6626 35.7716 62.1222 35.4134C65.507 34.5681 69.04 33.7227 72.6197 32.9013C75.6165 32.2118 78.589 31.5486 81.4541 30.9308C92.6756 28.5063 104.186 26.3156 115.666 24.4191C200.01 10.4786 331.983 4.09888 481.717 52.8773C481.846 52.9191 481.956 53.0071 482.027 53.1252C482.099 53.2433 482.127 53.3838 482.106 53.5213C482.086 53.6587 482.018 53.7841 481.915 53.8746C481.813 53.9652 481.682 54.015 481.547 54.015V54.015Z" fill="#E9CDC3"/>
<path d="M149.017 244.561C148.821 243.971 148.492 243.438 148.056 243.006C147.895 242.852 147.721 242.714 147.535 242.592C146.059 241.579 143.854 241.352 142.451 242.592C142.31 242.718 142.18 242.857 142.061 243.006C141.643 243.536 141.213 244.054 140.772 244.561C140.048 245.412 139.307 246.233 138.532 247.031C138.312 247.252 138.091 247.48 137.865 247.701C137.735 247.835 137.605 247.963 137.475 248.091C136.977 248.58 136.468 249.052 135.954 249.518C135.682 249.769 135.411 250.013 135.134 250.252C134.721 250.608 134.308 250.963 133.89 251.307C133.85 251.336 133.81 251.365 133.771 251.4C133.76 251.406 133.754 251.417 133.743 251.423C133.737 251.423 133.731 251.423 133.726 251.435C133.71 251.441 133.697 251.451 133.686 251.464C133.562 251.551 133.477 251.61 133.415 251.662C133.437 251.65 133.46 251.633 133.482 251.621C133.381 251.703 133.273 251.784 133.171 251.866C132.182 252.617 131.17 253.34 130.135 254.015C127.574 255.703 124.885 257.174 122.093 258.413C121.907 258.489 121.714 258.571 121.522 258.646C114.213 261.731 106.284 262.935 98.4211 262.153C97.618 262.089 96.815 262.002 96.012 261.891C95.0846 261.751 94.1628 261.582 93.2467 261.39C89.759 260.673 86.3464 259.612 83.0563 258.221C78.9406 256.28 75.0262 253.914 71.3729 251.161C70.8074 250.747 70.2363 250.334 69.6651 249.932C70.3154 248.289 70.9545 246.647 71.5765 244.992C71.8875 244.194 72.1873 243.396 72.4813 242.592C74.7942 236.4 76.9658 230.15 79.0468 223.876C81.1505 217.521 83.1355 211.129 85.0016 204.7C85.1939 204.048 85.3805 203.395 85.5615 202.743C86.5398 199.347 87.4785 195.943 88.3777 192.531C88.4625 192.199 88.553 191.873 88.6322 191.541C88.8923 190.563 89.1468 189.584 89.3956 188.605C89.9611 186.398 88.6831 183.759 86.4324 183.229C85.3487 182.943 84.1995 183.101 83.2269 183.67C82.2543 184.24 81.5342 185.176 81.2184 186.281C80.9752 187.225 80.7321 188.163 80.4832 189.106C79.29 193.667 78.0346 198.213 76.717 202.743C76.5247 203.395 76.3324 204.048 76.1401 204.7C73.2334 214.568 70.0421 224.336 66.5661 234.006C66.1476 235.177 65.7235 236.344 65.2937 237.507C65.0845 238.078 64.8753 238.649 64.6604 239.22C64.2475 240.344 63.8234 241.468 63.3993 242.592C63.1561 243.251 62.9073 243.909 62.6585 244.561C62.4945 244.975 62.3361 245.388 62.1778 245.796C60.5654 245.2 58.8949 244.786 57.1957 244.561L56.9242 244.526C55.6068 244.363 54.2745 244.375 52.96 244.561C50.9927 244.798 49.0998 245.476 47.4151 246.549C45.7304 247.622 44.2951 249.063 43.2107 250.771C40.5132 255.145 40.5472 261.402 44.3304 265.118C48.2267 268.945 54.125 268.916 58.7112 266.522C61.1417 265.167 63.191 263.189 64.6604 260.778C65.2233 259.904 65.7405 259 66.2099 258.07C66.3286 258.151 66.4474 258.233 66.5661 258.32C67.0185 258.646 67.4709 258.978 67.9177 259.304C70.5207 261.247 73.2638 262.982 76.1232 264.495C82.2713 267.643 88.8894 269.705 95.701 270.594C95.8537 270.611 96.0007 270.634 96.1534 270.652C96.9055 270.751 97.6633 270.827 98.4211 270.891C109.291 271.734 120.175 269.443 129.852 264.273C130.672 263.836 131.484 263.378 132.289 262.899C133.539 262.153 134.761 261.361 135.954 260.522C136.604 260.068 137.237 259.607 137.865 259.124C140.608 257.043 143.165 254.713 145.505 252.163C146.393 251.202 147.243 250.21 148.056 249.186C148.824 248.349 149.267 247.25 149.3 246.099C149.295 245.573 149.2 245.052 149.017 244.561V244.561ZM55.3748 258.437C55.4935 258.349 55.6123 258.256 55.7254 258.163C55.6915 258.25 55.5274 258.349 55.3748 258.437H55.3748ZM57.19 256.555C57.06 256.707 56.9412 256.858 56.8111 257.009C56.4154 257.466 55.9903 257.894 55.5387 258.291C55.4765 258.349 55.4087 258.407 55.3408 258.46C55.3401 258.46 55.3393 258.46 55.3386 258.46C55.3379 258.461 55.3373 258.461 55.3368 258.462C55.3363 258.462 55.3358 258.463 55.3356 258.463C55.3353 258.464 55.3351 258.465 55.3352 258.466C55.2535 258.503 55.1741 258.546 55.0976 258.594C54.8545 258.745 54.6056 258.885 54.3512 259.013C53.8529 259.202 53.3403 259.348 52.8187 259.45C52.4178 259.48 52.0155 259.484 51.6141 259.462H51.6028C51.3258 259.398 51.0522 259.321 50.7828 259.229C50.6471 259.159 50.5171 259.077 50.387 258.996C50.3361 258.949 50.2908 258.903 50.2626 258.873C50.2073 258.821 50.1563 258.765 50.1099 258.705C50.1099 258.704 50.1098 258.703 50.1095 258.702C50.1092 258.702 50.1088 258.701 50.1083 258.7C50.1078 258.7 50.1071 258.699 50.1064 258.699C50.1057 258.699 50.105 258.699 50.1043 258.699C50.042 258.582 49.9742 258.466 49.912 258.349C49.9088 258.346 49.9067 258.342 49.9063 258.338C49.8611 258.192 49.8215 258.04 49.7876 257.889C49.7753 257.623 49.7772 257.357 49.7932 257.091C49.8691 256.719 49.9712 256.353 50.0986 255.996C50.2131 255.743 50.3434 255.498 50.4888 255.262C50.5001 255.239 50.5567 255.145 50.6189 255.041C50.6245 255.035 50.6245 255.035 50.6245 255.029C50.7094 254.93 50.7942 254.825 50.8847 254.732C51.0374 254.557 51.2014 254.406 51.3654 254.248C51.6843 254.033 52.0147 253.837 52.355 253.66C52.8948 253.462 53.4488 253.309 54.0119 253.2C54.8423 253.132 55.6768 253.14 56.5058 253.223C57.291 253.363 58.0657 253.56 58.8244 253.811C58.3646 254.731 57.8411 255.614 57.2579 256.456C57.2353 256.491 57.2127 256.526 57.19 256.555V256.555ZM50.9016 254.639C50.8518 254.721 50.793 254.797 50.7263 254.866C50.7712 254.78 50.8305 254.703 50.9016 254.639V254.639Z" fill="#343330"/>
<path d="M132.018 185.069C131.967 186.898 131.916 188.727 131.865 190.556C131.758 194.616 131.646 198.678 131.531 202.742C131.413 207.315 131.288 211.886 131.158 216.455C131.096 218.814 131.032 221.173 130.966 223.532C130.791 229.887 130.617 236.241 130.446 242.592C130.429 243.25 130.406 243.903 130.389 244.561C130.304 247.712 130.22 250.864 130.135 254.015C130.039 257.434 129.944 260.854 129.852 264.273C129.784 266.836 129.714 269.401 129.643 271.968C129.134 290.567 128.625 309.167 128.116 327.766C128.094 328.918 127.641 330.017 126.85 330.831C126.059 331.646 124.993 332.113 123.875 332.135C122.752 332.126 121.679 331.663 120.885 330.845C120.092 330.028 119.642 328.922 119.633 327.766C119.916 317.305 120.203 306.843 120.493 296.381C120.747 286.921 121.006 277.461 121.268 268.001C121.352 264.885 121.437 261.766 121.522 258.646C121.652 253.951 121.78 249.256 121.907 244.561C121.924 243.903 121.946 243.25 121.963 242.592C121.974 242.015 121.991 241.444 122.008 240.868C122.257 231.751 122.506 222.633 122.755 213.513C122.857 209.925 122.955 206.335 123.049 202.742C123.162 198.647 123.275 194.554 123.388 190.463C123.439 188.663 123.484 186.869 123.535 185.069C123.557 183.917 124.01 182.819 124.801 182.004C125.592 181.19 126.658 180.722 127.777 180.7C128.899 180.71 129.972 181.173 130.766 181.99C131.559 182.807 132.009 183.913 132.018 185.069V185.069Z" fill="#343330"/>
<path d="M364.683 186.282C360.236 203.628 354.92 220.727 348.758 237.508C347.057 242.137 345.318 246.757 343.458 251.321L343.886 250.277C343.056 252.451 341.996 254.524 340.725 256.458C340.638 256.583 340.55 256.707 340.461 256.829C340.9 256.25 340.984 256.136 340.711 256.486C340.567 256.661 340.426 256.837 340.277 257.008C339.881 257.464 339.456 257.893 339.005 258.291C338.892 258.391 338.776 258.489 338.659 258.585L339.19 258.16C339.128 258.31 338.696 258.508 338.562 258.593C338.126 258.864 337.671 259.101 337.202 259.303L338.215 258.862C337.445 259.182 336.642 259.409 335.822 259.538L336.949 259.382C336.144 259.497 335.327 259.506 334.519 259.409L335.647 259.565C334.985 259.471 334.338 259.292 333.721 259.031L334.734 259.471C334.405 259.324 334.087 259.149 333.785 258.949C333.631 258.846 333.16 258.478 333.776 258.964C334.417 259.468 333.859 259.007 333.727 258.873C333.617 258.761 333.518 258.64 333.41 258.526C332.911 257.999 333.974 259.433 333.635 258.817C333.454 258.508 333.288 258.19 333.138 257.863L333.566 258.907C333.371 258.41 333.233 257.892 333.154 257.363L333.305 258.524C333.225 257.866 333.224 257.199 333.304 256.541L333.152 257.702C333.256 256.967 333.445 256.247 333.715 255.558L333.287 256.602C333.475 256.139 333.698 255.691 333.953 255.263C334.071 255.042 334.209 254.833 334.365 254.639C334.393 254.648 333.648 255.52 334.043 255.08C334.147 254.965 334.244 254.843 334.348 254.729C334.516 254.546 334.695 254.379 334.872 254.206C335.462 253.627 334.045 254.769 334.727 254.31C335.221 253.976 335.741 253.684 336.281 253.437L335.268 253.878C336.174 253.495 337.123 253.232 338.093 253.097L336.965 253.253C338.18 253.109 339.408 253.124 340.619 253.298L339.491 253.142C341.025 253.381 342.524 253.816 343.954 254.435L342.941 253.994C345.989 255.342 348.688 257.343 351.383 259.306C353.986 261.247 356.728 262.981 359.586 264.494C365.735 267.643 372.353 269.705 379.165 270.595C388.935 271.828 398.848 270.513 407.996 266.773C417.144 263.032 425.234 256.985 431.523 249.187C432.29 248.348 432.732 247.249 432.765 246.097C432.757 244.94 432.312 243.832 431.523 243.008C429.967 241.537 427.028 241.121 425.525 243.008C424.101 244.799 422.57 246.497 420.941 248.092C420.18 248.835 419.399 249.555 418.598 250.253C418.141 250.651 417.677 251.042 417.207 251.424C416.984 251.605 416.291 252.087 417.355 251.309C417.111 251.487 416.877 251.682 416.637 251.865C413.075 254.57 409.216 256.831 405.139 258.602L406.152 258.161C401.777 260.052 397.182 261.349 392.483 262.019L393.611 261.863C388.776 262.518 383.879 262.511 379.047 261.841L380.174 261.997C375.343 261.313 370.618 259.988 366.117 258.053L367.131 258.494C362.788 256.514 358.666 254.055 354.838 251.159C352.846 249.64 350.746 248.278 348.554 247.085C346.001 245.742 343.236 244.876 340.389 244.529C335.052 243.882 329.612 246.023 326.678 250.773C323.977 255.145 324.012 261.4 327.794 265.118C331.689 268.946 337.588 268.914 342.178 266.519C346.599 264.213 349.254 259.421 351.122 254.903C355.324 244.735 359.044 234.332 362.511 223.877C365.94 213.532 369.05 203.083 371.841 192.53C372.186 191.223 372.527 189.914 372.863 188.604C373.429 186.397 372.149 183.758 369.9 183.23C368.816 182.943 367.666 183.1 366.693 183.67C365.719 184.239 364.999 185.175 364.683 186.282L364.683 186.282Z" fill="#343330"/>
<path d="M407.001 185.069L405.475 240.869L403.956 296.379L403.097 327.767C403.107 328.923 403.557 330.028 404.35 330.845C405.143 331.663 406.217 332.126 407.339 332.136C408.457 332.114 409.523 331.646 410.314 330.832C411.105 330.017 411.558 328.919 411.58 327.767L413.107 271.967L414.625 216.457L415.484 185.069C415.474 183.913 415.024 182.808 414.231 181.991C413.438 181.173 412.365 180.71 411.243 180.7C410.125 180.722 409.058 181.19 408.267 182.004C407.477 182.819 407.023 183.917 407.001 185.069V185.069Z" fill="#343330"/>
<path opacity="0.2" d="M260.197 312.188H261.514V250.417H292.237V249.064H261.514V223H285.24C284.892 222.545 284.534 222.095 284.166 221.651H261.514V204.436C261.078 204.244 260.639 204.06 260.197 203.886V221.651H234.38V199.594C233.938 199.615 233.502 199.646 233.063 199.684V221.651H212.468V205.194C212.025 205.396 211.59 205.608 211.157 205.831V221.651H193.844V223H211.157V249.064H193.844V250.417H211.157V312.188H212.468V250.417C215.172 250.417 217.851 250.965 220.35 252.031C222.849 253.097 225.12 254.66 227.032 256.63C228.945 258.6 230.462 260.939 231.497 263.513C232.532 266.087 233.064 268.846 233.063 271.632V312.188H234.38V250.417H260.197V312.188ZM212.468 249.064V223H233.063V249.064H212.468ZM234.38 249.064V223H234.897C238.22 223 241.51 223.675 244.579 224.985C247.649 226.295 250.438 228.215 252.788 230.635C255.137 233.055 257 235.928 258.272 239.091C259.543 242.253 260.197 245.642 260.197 249.064H234.38Z" fill="#343330"/>
<path d="M252.154 293.666C250.496 301.285 246.524 308.161 240.816 313.297C240.397 313.67 239.979 314.031 239.543 314.386C238.486 314.485 237.436 314.586 236.393 314.689C235.528 314.771 234.674 314.858 233.826 314.94L233.673 314.957L233.566 314.002L233.136 310.134C231.469 307.33 230.435 304.176 230.112 300.905C229.789 297.634 230.185 294.329 231.27 291.237C232.763 287.09 235.466 283.426 238.124 279.791C241.794 274.77 245.362 269.807 245.492 263.685C247.298 266.065 248.8 268.675 249.96 271.449C248.865 271.98 247.882 272.726 247.064 273.645C246.833 273.908 246.601 274.275 246.759 274.589C246.895 274.857 247.234 274.921 247.528 274.956C248.235 275.032 248.948 275.108 249.654 275.183C250.22 275.247 250.785 275.306 251.351 275.37C252.035 277.683 252.499 280.059 252.736 282.465C253.118 286.207 252.921 289.988 252.154 293.666V293.666Z" fill="#343330"/>
<path d="M270.929 278.399C267.592 280.898 265.641 284.492 264.126 288.453C262.572 288.965 261.175 289.884 260.071 291.121C259.839 291.383 259.607 291.75 259.766 292.064C259.901 292.332 260.241 292.396 260.535 292.431C261.242 292.507 261.954 292.583 262.661 292.659C261.146 297.342 259.754 302.188 257.074 306.144C255.291 308.755 252.968 310.926 250.271 312.499C249.536 312.93 248.777 313.318 247.998 313.658C245.125 313.885 242.307 314.128 239.543 314.386C238.486 314.485 237.436 314.586 236.393 314.689C235.528 314.771 234.674 314.858 233.826 314.94C233.82 314.619 233.82 314.299 233.826 313.978C234.005 305.444 237.053 297.238 242.45 290.76C242.704 290.457 242.965 290.16 243.23 289.863C245.965 286.854 249.18 284.352 252.736 282.465C258.34 279.463 264.621 278.06 270.929 278.399V278.399Z" fill="#3A5A40"/>
<path d="M237.372 311.701L236.721 313.682L236.393 314.689C235.528 314.771 234.674 314.858 233.826 314.94L233.673 314.957C232.735 315.056 231.801 315.155 230.868 315.254C230.625 314.963 230.382 314.666 230.144 314.363C224.242 307 221.408 297.53 222.264 288.022C223.119 278.514 227.593 269.741 234.708 263.621C233.962 267.646 234.833 271.502 236.263 275.329C236.111 275.393 235.964 275.457 235.822 275.527C234.727 276.058 233.744 276.804 232.927 277.723C232.695 277.985 232.463 278.352 232.621 278.667C232.757 278.935 233.096 278.999 233.39 279.034C234.097 279.109 234.81 279.185 235.517 279.261C236.082 279.325 236.648 279.383 237.213 279.447C237.479 279.476 237.745 279.506 238.011 279.535C238.05 279.622 238.084 279.704 238.124 279.791C239.735 283.391 241.472 287.008 242.45 290.76C242.695 291.701 242.888 292.656 243.027 293.62C243.462 296.878 243.18 300.195 242.201 303.325C241.222 306.455 239.571 309.318 237.372 311.701V311.701Z" fill="#3A5A40"/>
<path d="M294.294 227.214C289.426 217.433 281.884 209.203 273.013 203.155C264.114 197.115 253.903 193.437 243.289 192.448C241.897 192.318 240.503 192.242 239.105 192.219C237.452 192.194 212.602 199.577 204.277 205.607C195.956 211.562 189.112 219.449 184.296 228.631C179.488 237.864 177.123 248.237 177.439 258.708C177.851 269.243 180.701 279.524 185.753 288.694C190.736 297.834 197.811 305.582 206.362 311.263C215.036 316.964 223.749 332.08 233.99 332.613C244.308 333.151 256.075 318.892 265.486 314.563C274.897 310.198 283.032 303.368 289.082 294.755C294.961 286.314 298.764 276.53 300.165 266.242C301.621 255.709 300.942 244.845 297.45 234.777C296.554 232.19 295.5 229.664 294.295 227.214C293.288 225.173 290.338 224.421 288.492 225.647C287.54 226.251 286.851 227.208 286.568 228.322C286.285 229.435 286.429 230.618 286.97 231.624C287.561 232.824 288.111 234.042 288.619 235.281L288.191 234.238C290.114 239 291.421 244.001 292.08 249.114L291.928 247.952C292.629 253.499 292.616 259.117 291.891 264.66L292.042 263.499C291.309 269.042 289.873 274.462 287.77 279.619L288.198 278.576C287.116 281.207 285.855 283.757 284.425 286.206C283.7 287.443 282.931 288.651 282.117 289.83C281.76 290.347 281.392 290.856 281.021 291.362C280.537 292.024 281.681 290.498 281.18 291.147C281.095 291.258 281.011 291.369 280.925 291.479C280.668 291.81 280.408 292.137 280.144 292.462C278.38 294.629 276.456 296.651 274.389 298.51C273.874 298.974 273.35 299.426 272.818 299.868C272.553 300.089 272.291 300.319 272.014 300.524C272.025 300.516 272.908 299.825 272.385 300.226C272.221 300.352 272.058 300.48 271.893 300.606C270.796 301.443 269.67 302.237 268.515 302.989C265.855 304.715 263.064 306.218 260.17 307.482L261.184 307.042C256.191 309.207 250.944 310.686 245.577 311.441L246.705 311.285C241.341 312.031 235.904 312.041 230.538 311.314L231.665 311.47C226.788 310.796 222.017 309.467 217.474 307.518L218.487 307.958C215.855 306.814 213.318 305.452 210.9 303.886C209.703 303.11 208.538 302.285 207.403 301.412C207.241 301.288 207.081 301.161 206.92 301.036C206.402 300.634 207.291 301.333 207.299 301.338C206.998 301.115 206.708 300.877 206.43 300.624C205.883 300.165 205.343 299.694 204.812 299.214C202.688 297.287 200.705 295.202 198.878 292.975C198.421 292.418 197.974 291.853 197.536 291.28C197.346 291.031 197.001 290.528 197.764 291.588C197.664 291.448 197.56 291.312 197.458 291.173C197.214 290.84 196.974 290.504 196.737 290.166C195.906 288.983 195.117 287.77 194.369 286.528C192.678 283.717 191.202 280.775 189.954 277.727L190.382 278.771C188.341 273.769 186.946 268.514 186.231 263.138L186.383 264.3C185.738 259.345 185.729 254.324 186.355 249.367L186.204 250.528C186.846 245.727 188.1 241.035 189.933 236.571L189.505 237.615C190.659 234.821 192.019 232.123 193.574 229.544C194.353 228.253 195.178 226.994 196.05 225.766C196.248 225.487 196.448 225.21 196.651 224.935C196.834 224.685 197.338 224.065 196.478 225.161C196.562 225.053 196.643 224.943 196.727 224.834C197.205 224.21 197.695 223.596 198.197 222.991C200.095 220.701 202.152 218.556 204.351 216.571C204.907 216.069 205.471 215.578 206.045 215.098C206.305 214.88 206.567 214.663 206.831 214.45C206.937 214.364 207.044 214.28 207.149 214.194C206.019 215.12 206.835 214.446 207.091 214.248C208.273 213.336 209.486 212.47 210.731 211.649C213.497 209.827 216.408 208.247 219.432 206.926L218.419 207.367C222.807 205.469 242.25 200.989 245.786 201.478L244.658 201.322C249.856 202.069 254.936 203.515 259.768 205.622L258.755 205.182C261.204 206.253 263.584 207.484 265.881 208.869C267.028 209.561 268.153 210.292 269.255 211.06C269.777 211.424 270.293 211.796 270.804 212.176C271.059 212.366 271.313 212.558 271.565 212.752C271.705 212.86 271.844 212.969 271.984 213.077C272.572 213.531 271.175 212.42 271.791 212.922C273.853 214.59 275.811 216.39 277.654 218.312C278.559 219.261 279.433 220.241 280.276 221.25C280.708 221.769 281.132 222.294 281.547 222.828C281.753 223.093 282.454 224.052 281.594 222.877C281.805 223.164 282.017 223.449 282.225 223.738C284.012 226.23 285.599 228.867 286.97 231.624C287.984 233.662 290.921 234.422 292.773 233.192C293.725 232.589 294.414 231.631 294.697 230.517C294.981 229.404 294.836 228.221 294.294 227.214Z" fill="#343330"/>
<path d="M244.875 298.511C244.437 298.531 244.004 298.413 243.633 298.171C243.263 297.93 242.974 297.577 242.805 297.16C242.636 296.744 242.595 296.284 242.688 295.843C242.781 295.402 243.004 295.001 243.326 294.694C243.38 294.474 243.418 294.315 243.472 294.095C243.453 294.046 243.433 293.999 243.414 293.951C241.446 289.117 228.889 302.591 228.346 307.134C228.107 309.142 228.208 311.177 228.644 313.15C224.577 304.01 222.465 294.077 222.451 284.023C222.45 281.5 222.586 278.979 222.859 276.471C223.084 274.416 223.396 272.375 223.795 270.349C225.976 259.355 230.656 249.05 237.453 240.282C241.34 240.505 244.747 239.895 245.076 232.135C245.135 230.755 246.129 229.56 246.348 228.2C245.977 228.25 245.599 228.281 245.228 228.306C245.113 228.312 244.991 228.319 244.875 228.325L244.832 228.327C244.424 228.346 244.019 228.243 243.667 228.03C243.315 227.818 243.03 227.505 242.846 227.13C242.662 226.754 242.588 226.332 242.631 225.914C242.675 225.496 242.835 225.1 243.092 224.773C243.253 224.57 243.413 224.367 243.573 224.164C243.817 223.851 244.066 223.544 244.31 223.23C244.338 223.2 244.364 223.169 244.389 223.136C244.669 222.779 244.948 222.428 245.228 222.071C244.717 221.254 244.03 220.57 243.221 220.072C240.416 218.38 236.547 219.552 234.521 222.165C232.489 224.778 232.106 228.444 232.811 231.709C233.505 234.487 234.653 237.123 236.206 239.505C236.054 239.705 235.896 239.899 235.744 240.1C232.963 243.783 230.54 247.737 228.509 251.906C229.084 247.282 222.056 230.582 219.338 227.044C216.073 222.796 209.378 224.65 208.803 230.036C208.798 230.088 208.792 230.14 208.787 230.192C209.191 230.427 209.586 230.676 209.973 230.939C210.458 231.274 210.835 231.751 211.052 232.31C211.27 232.868 211.319 233.481 211.193 234.069C211.066 234.656 210.77 235.191 210.344 235.602C209.918 236.014 209.381 236.283 208.804 236.374L208.744 236.384C203.341 244.331 220.664 265.017 225 260.372C222.959 266.33 221.679 272.536 221.192 278.834C220.916 282.549 220.932 286.282 221.24 289.995L221.222 289.863C220.259 281.776 203.73 269.753 198.904 270.755C196.123 271.332 193.385 271.201 193.807 274.09C193.813 274.136 193.82 274.182 193.827 274.228C194.576 274.542 195.306 274.904 196.011 275.312C196.415 275.547 196.81 275.796 197.197 276.059C197.683 276.393 198.059 276.871 198.277 277.429C198.494 277.988 198.543 278.601 198.417 279.188C198.29 279.776 197.995 280.31 197.568 280.722C197.142 281.133 196.605 281.402 196.028 281.494L195.969 281.503C195.926 281.51 195.89 281.516 195.847 281.522C193.387 290.24 211.629 304.31 222.719 299.833H222.725C223.824 304.752 225.416 309.541 227.476 314.121H244.449C244.51 313.927 244.565 313.726 244.62 313.532C243.049 313.634 241.471 313.537 239.923 313.244C241.183 311.652 242.442 310.048 243.701 308.456C243.729 308.426 243.756 308.395 243.78 308.362C244.419 307.547 245.064 306.739 245.703 305.924L245.703 305.923C245.737 303.426 245.459 300.935 244.875 298.511L244.875 298.511ZM225.438 259.125L225.447 259.113L225.438 259.138V259.125ZM221.678 294.037L221.532 293.698C221.538 293.454 221.538 293.209 221.532 292.959C221.532 292.89 221.52 292.821 221.52 292.752C221.575 293.184 221.624 293.617 221.684 294.049L221.678 294.037Z" fill="#343330"/>
<path d="M54.1589 262.13C57.5945 262.13 60.3795 259.261 60.3795 255.722C60.3795 252.183 57.5945 249.314 54.1589 249.314C50.7234 249.314 47.9384 252.183 47.9384 255.722C47.9384 259.261 50.7234 262.13 54.1589 262.13Z" fill="#343330"/>
<path d="M128.806 332.031C132.241 332.031 135.026 329.162 135.026 325.623C135.026 322.084 132.241 319.215 128.806 319.215C125.37 319.215 122.585 322.084 122.585 325.623C122.585 329.162 125.37 332.031 128.806 332.031Z" fill="#343330"/>
<path d="M412.124 332.031C415.56 332.031 418.345 329.162 418.345 325.623C418.345 322.084 415.56 319.215 412.124 319.215C408.689 319.215 405.904 322.084 405.904 325.623C405.904 329.162 408.689 332.031 412.124 332.031Z" fill="#343330"/>
<path d="M427.393 250.479C430.829 250.479 433.614 247.61 433.614 244.072C433.614 240.533 430.829 237.664 427.393 237.664C423.958 237.664 421.173 240.533 421.173 244.072C421.173 247.61 423.958 250.479 427.393 250.479Z" fill="#343330"/>
<path d="M409.297 191.063C412.732 191.063 415.517 188.194 415.517 184.656C415.517 181.117 412.732 178.248 409.297 178.248C405.861 178.248 403.076 181.117 403.076 184.656C403.076 188.194 405.861 191.063 409.297 191.063Z" fill="#343330"/>
<path d="M149.729 244.072C149.726 245.708 149.111 247.281 148.013 248.464C146.915 249.647 145.418 250.35 143.83 250.427C142.243 250.505 140.688 249.951 139.486 248.88C138.285 247.809 137.529 246.303 137.375 244.674C137.221 243.045 137.681 241.417 138.66 240.128C139.639 238.838 141.062 237.986 142.634 237.747C144.206 237.508 145.807 237.901 147.105 238.844C148.404 239.787 149.301 241.208 149.611 242.813C149.691 243.228 149.73 243.649 149.729 244.072V244.072Z" fill="#343330"/>
<path d="M274.141 209.703C277.576 209.703 280.361 206.835 280.361 203.296C280.361 199.757 277.576 196.888 274.141 196.888C270.705 196.888 267.92 199.757 267.92 203.296C267.92 206.835 270.705 209.703 274.141 209.703Z" fill="#343330"/>
<path d="M212.501 203.296C212.497 204.933 211.883 206.506 210.784 207.689C209.686 208.872 208.189 209.575 206.602 209.652C205.014 209.729 203.459 209.175 202.258 208.104C201.056 207.033 200.3 205.527 200.146 203.898C199.993 202.269 200.453 200.642 201.432 199.352C202.41 198.063 203.833 197.211 205.405 196.972C206.977 196.733 208.578 197.125 209.876 198.068C211.175 199.011 212.072 200.433 212.382 202.038C212.462 202.452 212.502 202.874 212.501 203.296V203.296Z" fill="#343330"/>
<path d="M132.199 184.656C132.195 186.292 131.581 187.865 130.483 189.048C129.385 190.231 127.887 190.934 126.3 191.011C124.713 191.089 123.157 190.535 121.956 189.464C120.754 188.393 119.998 186.887 119.844 185.258C119.691 183.629 120.151 182.001 121.13 180.712C122.108 179.422 123.531 178.57 125.103 178.331C126.675 178.092 128.276 178.485 129.575 179.428C130.873 180.371 131.77 181.792 132.08 183.397C132.16 183.812 132.2 184.233 132.199 184.656V184.656Z" fill="#343330"/>
<path d="M339.174 264.46C342.61 264.46 345.395 261.591 345.395 258.052C345.395 254.513 342.61 251.645 339.174 251.645C335.739 251.645 332.954 254.513 332.954 258.052C332.954 261.591 335.739 264.46 339.174 264.46Z" fill="#343330"/>
<path d="M241.342 206.209C246.339 206.209 250.39 202.036 250.39 196.889C250.39 191.741 246.339 187.568 241.342 187.568C236.344 187.568 232.293 191.741 232.293 196.889C232.293 202.036 236.344 206.209 241.342 206.209Z" fill="#343330"/>
<path d="M486.032 332.52L0.968469 332.699C0.880045 332.699 0.792485 332.682 0.710792 332.647C0.629099 332.612 0.554875 332.561 0.49235 332.496C0.429825 332.432 0.380221 332.355 0.346383 332.271C0.312544 332.187 0.295135 332.097 0.295135 332.006C0.295135 331.915 0.312544 331.825 0.346383 331.74C0.380221 331.656 0.429825 331.58 0.49235 331.515C0.554875 331.451 0.629099 331.4 0.710792 331.365C0.792485 331.33 0.880045 331.312 0.968469 331.312L486.032 331.133C486.21 331.134 486.381 331.207 486.506 331.337C486.632 331.467 486.703 331.643 486.703 331.827C486.703 332.01 486.632 332.187 486.506 332.317C486.381 332.447 486.21 332.52 486.032 332.52V332.52Z" fill="#E9CDC3"/>
</g>
<defs>
<clipPath id="clip0_504_684">
<rect width="486.41" height="332.699" fill="white" transform="translate(0.295135)"/>
</clipPath>
</defs>
</svg>
