<svg width="441" height="290" viewBox="0 0 441 290" fill="none" xmlns="http://www.w3.org/2000/svg">
<g clip-path="url(#clip0_505_1198)">
<path d="M115.494 176.738C161.724 176.738 199.201 137.174 199.201 88.3691C199.201 39.5642 161.724 0 115.494 0C69.2632 0 31.7859 39.5642 31.7859 88.3691C31.7859 137.174 69.2632 176.738 115.494 176.738Z" fill="#C4EBAD"/>
<path d="M0.5 21.2178C0.5 53.37 19.6066 79.3871 43.2188 79.3871Z" fill="#2F2E41"/>
<path d="M43.2188 79.3874C43.2188 46.8739 64.5407 20.5645 90.8904 20.5645Z" fill="#3A5A40"/>
<path d="M15.9778 24.1323C15.9778 54.6735 28.1618 79.387 43.2188 79.387Z" fill="#3A5A40"/>
<path d="M43.2188 79.3872C43.2188 37.8423 67.8636 4.22461 98.3198 4.22461Z" fill="#2F2E41"/>
<path d="M34.2318 79.7972C34.2318 79.7972 40.2901 79.6002 42.1159 78.2277C43.9417 76.8552 51.4349 75.2163 51.8879 77.4175C52.3408 79.6187 60.9923 88.3654 54.1526 88.4236C47.3128 88.4819 38.2601 87.2989 36.4378 86.1271C34.6156 84.9553 34.2318 79.7972 34.2318 79.7972Z" fill="#E9CDC3"/>
<path opacity="0.2" d="M54.2746 87.6576C47.4349 87.7159 38.3822 86.5329 36.5599 85.3611C35.1721 84.4687 34.6191 81.2664 34.4341 79.7891C34.306 79.7949 34.2319 79.7974 34.2319 79.7974C34.2319 79.7974 34.6156 84.9554 36.4379 86.1273C38.2601 87.2991 47.3129 88.4821 54.1526 88.4238C56.1269 88.407 56.8089 87.6655 56.7714 86.5671C56.4971 87.2308 55.7441 87.6451 54.2746 87.6576Z" fill="#343330"/>
<path d="M78.5523 186.67C119.14 186.67 152.042 181.945 152.042 176.116C152.042 170.287 119.14 165.562 78.5523 165.562C37.9649 165.562 5.06232 170.287 5.06232 176.116C5.06232 181.945 37.9649 186.67 78.5523 186.67Z" fill="#343330"/>
<path opacity="0.1" d="M78.5522 184.977C112.628 184.977 140.252 181.01 140.252 176.116C140.252 171.222 112.628 167.255 78.5522 167.255C44.4762 167.255 16.8521 171.222 16.8521 176.116C16.8521 181.01 44.4762 184.977 78.5522 184.977Z" fill="#343330"/>
<path d="M329.283 290C390.706 290 440.5 282.849 440.5 274.027C440.5 265.205 390.706 258.054 329.283 258.054C267.859 258.054 218.065 265.205 218.065 274.027C218.065 282.849 267.859 290 329.283 290Z" fill="#343330"/>
<path d="M122.568 277.399C159.465 277.399 189.377 273.103 189.377 267.804C189.377 262.505 159.465 258.209 122.568 258.209C85.67 258.209 55.7586 262.505 55.7586 267.804C55.7586 273.103 85.67 277.399 122.568 277.399Z" fill="#343330"/>
<path d="M182.303 259.714C217.672 269.256 285.66 247.268 293.127 222.375" stroke="#2F2E41" stroke-width="2" stroke-miterlimit="10"/>
<path d="M122.175 107.453C122.175 107.453 173.264 92.5177 176.408 140.644C179.552 188.77 134.357 202.46 169.727 212.003" stroke="#2F2E41" stroke-width="2" stroke-miterlimit="10"/>
<path d="M72.8155 222.907C72.8155 222.907 88.1707 218.418 89.1156 232.883C90.0605 247.347 76.4771 251.462 87.1076 254.33" stroke="#2F2E41" stroke-width="2" stroke-miterlimit="10"/>
<path d="M306.527 233.676L303.431 254.542C303.431 254.542 288.19 263.09 298.906 263.341C309.622 263.593 360.108 263.341 360.108 263.341C360.108 263.341 369.872 263.341 354.393 254.291L351.297 232.419L306.527 233.676Z" fill="#2F2E41"/>
<path opacity="0.1" d="M296.75 263.115C299.184 260.829 303.431 258.447 303.431 258.447L306.526 237.58L351.297 237.625L354.393 258.195C358.002 260.306 360.239 261.924 361.547 263.165C363.535 262.686 365.707 260.906 354.393 254.291L351.297 232.419L306.526 233.676L303.431 254.542C303.431 254.542 290.624 261.726 296.75 263.115Z" fill="#343330"/>
<path d="M422.435 88.2397H234.913C230.996 88.2397 227.821 91.5917 227.821 95.7265V229.08C227.821 233.215 230.996 236.567 234.913 236.567H422.435C426.351 236.567 429.526 233.215 429.526 229.08V95.7265C429.526 91.5917 426.351 88.2397 422.435 88.2397Z" fill="#2F2E41"/>
<path d="M422.739 96.1592H234.608V207.279H422.739V96.1592Z" fill="#343330"/>
<path d="M328.674 93.8963C329.331 93.8963 329.864 93.3336 329.864 92.6393C329.864 91.9451 329.331 91.3823 328.674 91.3823C328.016 91.3823 327.483 91.9451 327.483 92.6393C327.483 93.3336 328.016 93.8963 328.674 93.8963Z" fill="#C4EBAD"/>
<path d="M429.526 216.078V229.081C429.527 230.064 429.343 231.037 428.987 231.946C428.63 232.854 428.108 233.68 427.45 234.375C426.791 235.07 426.009 235.622 425.149 235.998C424.288 236.374 423.366 236.568 422.435 236.567H234.913C233.981 236.568 233.059 236.374 232.199 235.998C231.338 235.622 230.556 235.07 229.898 234.375C229.239 233.68 228.717 232.854 228.36 231.946C228.004 231.037 227.821 230.064 227.821 229.081V216.078H429.526Z" fill="#2F2E41"/>
<path d="M381.303 276.917V279.431H253.183V277.42L253.359 276.917L256.517 267.867H378.683L381.303 276.917Z" fill="#2F2E41"/>
<path d="M430.608 274.456C430.374 275.51 429.493 276.621 427.502 277.672C420.358 281.443 405.831 276.666 405.831 276.666C405.831 276.666 394.639 274.655 394.639 269.375C394.953 269.148 395.281 268.943 395.62 268.759C398.624 267.082 408.583 262.942 426.241 268.935C427.542 269.366 428.704 270.17 429.598 271.257C430.313 272.141 430.874 273.263 430.608 274.456Z" fill="#2F2E41"/>
<path opacity="0.1" d="M430.608 274.456C421.863 277.993 414.069 278.257 406.069 272.392C402.035 269.436 398.37 268.704 395.62 268.759C398.624 267.082 408.583 262.942 426.241 268.935C427.542 269.366 428.704 270.17 429.598 271.257C430.313 272.141 430.874 273.263 430.608 274.456Z" fill="#343330"/>
<path d="M419.644 272.392C421.353 272.392 422.739 271.942 422.739 271.386C422.739 270.831 421.353 270.381 419.644 270.381C417.934 270.381 416.548 270.831 416.548 271.386C416.548 271.942 417.934 272.392 419.644 272.392Z" fill="#C4EBAD"/>
<path d="M328.674 231.162C331.173 231.162 333.198 229.024 333.198 226.386C333.198 223.747 331.173 221.609 328.674 221.609C326.175 221.609 324.149 223.747 324.149 226.386C324.149 229.024 326.175 231.162 328.674 231.162Z" fill="#C4EBAD"/>
<path opacity="0.1" d="M381.303 276.917V279.431H253.183V277.42L253.359 276.917H381.303Z" fill="#343330"/>
<path d="M124.926 65.9658H43.1828V166.366H124.926V65.9658Z" fill="#2F2E41"/>
<path d="M133.178 56.0088H34.9299V91.6883H133.178V56.0088Z" fill="#343330"/>
<path d="M133.178 98.3262H34.9299V134.006H133.178V98.3262Z" fill="#343330"/>
<path d="M133.178 140.644H34.9299V176.323H133.178V140.644Z" fill="#343330"/>
<path opacity="0.4" d="M113.529 62.2319H107.241V68.87H113.529V62.2319Z" fill="#3A5A40"/>
<path opacity="0.8" d="M122.568 62.2319H116.28V68.87H122.568V62.2319Z" fill="#3A5A40"/>
<path d="M131.606 62.2319H125.319V68.87H131.606V62.2319Z" fill="#3A5A40"/>
<path opacity="0.4" d="M113.529 104.134H107.241V110.772H113.529V104.134Z" fill="#3A5A40"/>
<path opacity="0.8" d="M122.568 104.134H116.28V110.772H122.568V104.134Z" fill="#3A5A40"/>
<path d="M131.606 104.134H125.319V110.772H131.606V104.134Z" fill="#3A5A40"/>
<path opacity="0.4" d="M113.529 146.037H107.241V152.675H113.529V146.037Z" fill="#3A5A40"/>
<path opacity="0.8" d="M122.568 146.037H116.28V152.675H122.568V146.037Z" fill="#3A5A40"/>
<path d="M131.606 146.037H125.319V152.675H131.606V146.037Z" fill="#3A5A40"/>
<path d="M124.926 255.98C142.072 255.98 155.972 241.306 155.972 223.205C155.972 205.103 142.072 190.429 124.926 190.429C107.779 190.429 93.879 205.103 93.879 223.205C93.879 241.306 107.779 255.98 124.926 255.98Z" fill="#2F2E41"/>
<path d="M120.21 248.927H110.778V266.767H120.21V248.927Z" fill="#2F2E41"/>
<path d="M139.073 248.927H129.642V266.767H139.073V248.927Z" fill="#2F2E41"/>
<path d="M118.638 270.086C122.979 270.086 126.498 268.693 126.498 266.974C126.498 265.256 122.979 263.863 118.638 263.863C114.297 263.863 110.778 265.256 110.778 266.974C110.778 268.693 114.297 270.086 118.638 270.086Z" fill="#2F2E41"/>
<path d="M137.501 269.671C141.842 269.671 145.361 268.278 145.361 266.559C145.361 264.841 141.842 263.448 137.501 263.448C133.161 263.448 129.642 264.841 129.642 266.559C129.642 268.278 133.161 269.671 137.501 269.671Z" fill="#2F2E41"/>
<path d="M125.712 226.109C131.572 226.109 136.322 221.093 136.322 214.907C136.322 208.72 131.572 203.705 125.712 203.705C119.851 203.705 115.101 208.72 115.101 214.907C115.101 221.093 119.851 226.109 125.712 226.109Z" fill="#C4EBAD"/>
<path d="M125.712 218.641C127.665 218.641 129.249 216.969 129.249 214.907C129.249 212.845 127.665 211.173 125.712 211.173C123.758 211.173 122.175 212.845 122.175 214.907C122.175 216.969 123.758 218.641 125.712 218.641Z" fill="#343330"/>
<path d="M94.8094 192.724C92.3025 180.872 100.316 168.896 112.708 165.975C125.1 163.054 137.178 170.294 139.685 182.146C142.191 193.998 133.979 198.369 121.587 201.29C109.195 204.211 97.3163 204.576 94.8094 192.724Z" fill="#3A5A40"/>
<path d="M154.044 216.668C161.926 213.106 167.457 208.102 166.398 205.49C165.339 202.878 158.091 203.647 150.209 207.209C142.327 210.77 136.797 215.774 137.856 218.386C138.915 220.998 146.163 220.229 154.044 216.668Z" fill="#2F2E41"/>
<path d="M95.8811 238.656C103.763 235.095 109.294 230.09 108.235 227.478C107.176 224.866 99.9277 225.636 92.046 229.197C84.1643 232.758 78.6335 237.763 79.6925 240.375C80.7515 242.987 87.9994 242.217 95.8811 238.656Z" fill="#2F2E41"/>
<path d="M143.003 232.747C143.003 235.955 135.179 242.289 126.498 242.289C117.816 242.289 109.599 236.369 109.599 233.162C109.599 229.954 117.816 230.672 126.498 230.672C135.179 230.672 143.003 229.539 143.003 232.747Z" fill="#C4EBAD"/>
</g>
<defs>
<clipPath id="clip0_505_1198">
<rect width="440" height="290" fill="white" transform="translate(0.5)"/>
</clipPath>
</defs>
</svg>
