<svg width="711" height="472" viewBox="0 0 711 472" fill="none" xmlns="http://www.w3.org/2000/svg">
<g clip-path="url(#clip0_504_684)">
<rect width="711" height="472" fill="#D8FAFE"/>
<path d="M360.187 132.661C353.847 122.178 346.335 110.986 334.57 107.563C320.946 103.599 306.95 111.473 295.079 119.244C259.576 142.482 225.386 167.667 192.666 194.681L192.702 195.088C218.176 193.331 243.65 191.575 269.124 189.819C287.529 188.55 306.566 187.106 322.831 178.402C329.003 175.099 335.019 170.686 342.013 170.379C350.702 169.997 358.278 176.064 364.232 182.403C399.452 219.897 409.644 277.236 449.158 310.178C424.242 248.747 394.492 189.388 360.187 132.661V132.661Z" fill="#DEEAD7"/>
<path d="M576.679 450.685C572.784 445.768 571.193 444.617 567.351 439.654C536.069 399.207 506.667 357.392 479.144 314.212C460.449 284.886 442.682 254.996 425.841 224.544C417.824 210.066 410.026 195.475 402.448 180.77C396.568 169.368 390.819 157.898 385.201 146.36C383.595 143.065 382.034 139.754 380.48 136.436C376.82 128.632 373.228 120.791 369.371 113.094C364.976 104.321 359.626 95.1241 351.555 89.2301C347.883 86.4376 343.491 84.7481 338.893 84.3588C332.323 83.9346 326.261 86.6467 320.562 89.6089C278.869 111.344 239.835 138.595 204.53 169.603C169.134 200.681 137.496 235.791 110.261 274.219C109.428 275.408 107.457 274.272 108.298 273.075C111.61 268.393 114.987 263.762 118.43 259.181C161.24 202.26 213.73 153.311 273.503 114.572C283.56 108.056 293.805 101.847 304.239 95.9423C309.498 92.965 314.78 90.0255 320.153 87.2679C325.42 84.5633 331.012 82.1314 337.029 82.0405C357.504 81.7224 368.106 104.905 375.388 120.504C377.676 125.413 379.993 130.307 382.337 135.186C391.195 153.709 400.395 172.063 409.935 190.247C415.823 201.475 421.84 212.637 427.986 223.733C447.112 258.287 467.441 292.141 488.973 325.296C517.496 369.213 545.792 408.01 578.285 449.079C579.18 450.215 577.581 451.836 576.679 450.685Z" fill="#DEEAD7"/>
<path d="M202.506 158.156C201.317 156.83 200.135 155.504 198.937 154.179C189.495 143.739 179.364 133.42 166.398 127.435C160.216 124.492 153.467 122.928 146.62 122.852C139.542 122.875 132.623 124.731 126.084 127.329C122.992 128.564 119.968 129.966 116.99 131.458C113.588 133.17 110.246 134.996 106.919 136.837C100.675 140.292 94.5118 143.898 88.4295 147.656C76.3275 155.133 64.6045 163.181 53.2605 171.8C47.3799 176.27 41.6206 180.886 35.9827 185.649C30.7389 190.073 25.6011 194.616 20.5695 199.278C19.4935 200.27 17.8869 198.664 18.9629 197.672C20.289 196.437 21.6303 195.21 22.9716 193.998C26.7605 190.573 30.6101 187.215 34.5204 183.922C41.6509 177.906 48.9661 172.123 56.4659 166.573C68.1283 157.936 80.1923 149.885 92.6576 142.421C98.8868 138.693 105.202 135.123 111.602 131.708C113.535 130.678 115.49 129.67 117.468 128.716C121.955 126.453 126.618 124.555 131.411 123.041C138.2 120.846 145.383 120.14 152.47 120.973C159.312 121.968 165.905 124.248 171.9 127.693C184.63 134.807 194.504 145.807 204.113 156.542C205.083 157.633 203.484 159.247 202.506 158.156Z" fill="#DEEAD7"/>
<path d="M463.354 266.338L493.86 255.183L509.007 249.645C513.94 247.841 518.861 245.788 523.96 244.496C528.392 243.231 533.097 243.29 537.495 244.668C541.417 246.12 545.007 248.345 548.051 251.211C551.162 254.074 554.056 257.164 556.71 260.455C560.008 264.417 563.257 268.421 566.52 272.411C579.989 288.879 593.37 305.419 606.663 322.03C619.956 338.64 633.16 355.322 646.275 372.073C659.422 388.866 672.478 405.729 685.444 422.662C687.033 424.737 688.62 426.812 690.206 428.889C691.082 430.036 693.057 428.905 692.168 427.742C679.107 410.638 665.954 393.605 652.71 376.641C639.433 359.637 626.065 342.705 612.605 325.845C599.146 308.986 585.595 292.199 571.953 275.486C568.555 271.322 565.151 267.163 561.741 263.009C558.865 259.504 556.021 255.962 552.866 252.7C547.075 246.712 539.841 241.421 531.18 241.278C526.089 241.193 521.161 242.808 516.43 244.519C511.33 246.364 506.243 248.243 501.149 250.105L470.43 261.338L462.75 264.147C461.387 264.645 461.976 266.842 463.354 266.338L463.354 266.338Z" fill="#DEEAD7"/>
<path d="M162.383 140.572C146.881 132.606 127.028 134.166 112.782 144.118C139.955 148.805 166.83 155.076 193.27 162.899C182.291 156.466 173.702 146.387 162.383 140.572Z" fill="#DEEAD7"/>
<path d="M112.63 144.091L109.645 146.516C110.655 145.667 111.704 144.871 112.782 144.118C112.731 144.109 112.68 144.099 112.63 144.091Z" fill="#DEEAD7"/>
<path d="M546.903 266.45C543.9 262.795 540.653 258.969 536.161 257.484L531.968 257.65C563.89 314.043 607.003 363.319 658.661 402.453C621.409 357.119 584.156 311.784 546.903 266.45Z" fill="#DEEAD7"/>
<path d="M286.133 236.303C288.074 243.352 292.446 249.487 298.476 253.623C300.807 255.21 303.565 256.732 304.363 259.437C304.782 261.161 304.524 262.98 303.64 264.519C302.759 266.038 301.686 267.438 300.449 268.685L300.336 269.108C294.551 265.681 289.047 261.346 285.851 255.43C282.656 249.515 282.21 241.762 286.133 236.303" fill="#DEEAD7"/>
<path d="M478.735 404.063C480.676 411.112 485.048 417.247 491.078 421.384C493.409 422.97 496.167 424.493 496.965 427.197C497.384 428.921 497.126 430.74 496.242 432.279C495.361 433.799 494.288 435.199 493.051 436.446L492.938 436.869C487.153 433.441 481.649 429.106 478.453 423.191C475.258 417.276 474.812 409.523 478.735 404.063" fill="#DEEAD7"/>
<path d="M94.3581 392.494C96.2987 399.542 100.671 405.678 106.7 409.814C109.032 411.401 111.79 412.923 112.587 415.627C113.007 417.351 112.748 419.171 111.865 420.71C110.983 422.229 109.911 423.629 108.673 424.876L108.56 425.299C102.775 421.872 97.2717 417.536 94.0761 411.621C90.8805 405.706 90.4344 397.953 94.3581 392.494" fill="#DEEAD7"/>
<path d="M536.681 84.2934C559.964 84.2934 578.838 65.4237 578.838 42.1467C578.838 18.8697 559.964 0 536.681 0C513.398 0 494.523 18.8697 494.523 42.1467C494.523 65.4237 513.398 84.2934 536.681 84.2934Z" fill="#296643"/>
<path d="M612.759 9.80975C592.327 7.04878 569.002 18.0892 563.706 38.0096C562.372 34.4678 559.945 31.4418 556.778 29.3688C553.611 27.2957 549.866 26.2831 546.085 26.477C542.304 26.671 538.683 28.0615 535.745 30.4478C532.806 32.8341 530.702 36.0925 529.738 39.7523L532.077 41.4271C575.861 50.893 621.184 50.6881 664.88 40.8269C650.668 25.8946 633.19 12.5707 612.759 9.80975Z" fill="#DEEAD7"/>
<path d="M525.137 66.0054C504.706 63.2444 481.38 74.2849 476.085 94.2053C474.75 90.6634 472.324 87.6374 469.157 85.5644C465.989 83.4914 462.245 82.4787 458.464 82.6726C454.683 82.8666 451.062 84.2572 448.123 86.6434C445.185 89.0297 443.081 92.2881 442.116 95.9479L444.455 97.6228C488.239 107.089 533.562 106.884 577.259 97.0225C563.047 82.0902 545.569 68.7663 525.137 66.0054Z" fill="#DEEAD7"/>
<path d="M703.461 76.6312C703.376 76.6313 703.292 76.6183 703.212 76.5924C484.648 7.48989 292.015 16.5263 168.902 36.2753C152.148 38.9619 135.349 42.065 118.972 45.4989C114.791 46.3745 110.453 47.3131 106.079 48.2904C100.856 49.4534 95.702 50.651 90.7601 51.8487C88.6257 52.3539 86.5331 52.8631 84.4821 53.3764C81.3754 54.1431 78.2232 54.942 74.844 55.8201C71.0682 56.7934 67.2317 57.8143 63.4389 58.8545C63.425 58.8594 63.4109 58.8635 63.3965 58.8666L63.3969 58.8675C59.1129 60.0368 54.8514 61.2402 50.7304 62.4418C48.5 63.0858 46.3463 63.721 44.2834 64.3481C44.0529 64.4118 43.8487 64.4731 43.6416 64.5361L43.1984 64.6709C42.9417 64.7491 42.6883 64.8258 42.4348 64.8984L42.4187 64.9033L42.419 64.9041L41.7482 65.1124C40.9482 65.3545 40.1676 65.5909 39.4 65.8266C19.1107 72.0795 7.95699 76.5279 7.8468 76.5715C7.74604 76.6119 7.63831 76.632 7.52977 76.6308C7.42122 76.6295 7.31398 76.6069 7.21417 76.5642C7.11436 76.5215 7.02393 76.4597 6.94806 76.382C6.87218 76.3044 6.81234 76.2126 6.77195 76.1119C6.73156 76.0111 6.71143 75.9034 6.71267 75.7949C6.71392 75.6864 6.73653 75.5792 6.77922 75.4794C6.82191 75.3796 6.88383 75.2892 6.96147 75.2134C7.0391 75.1375 7.13092 75.0777 7.23168 75.0373C7.34268 74.9937 18.5509 70.5228 38.914 64.2464C39.6845 64.01 40.4671 63.7735 41.2695 63.5306L41.8927 63.3369C41.9141 63.3288 41.9355 63.3224 41.9573 63.3159C42.2096 63.2441 42.4614 63.1674 42.7173 63.0899L43.1613 62.9552C43.3825 62.8882 43.6004 62.822 43.8236 62.7607C45.8724 62.1376 48.0334 61.5009 50.2695 60.8544C54.3921 59.652 58.6576 58.4487 62.9449 57.2777C62.9582 57.2728 62.9719 57.2696 62.9852 57.2656V57.2647C66.7914 56.2212 70.6419 55.1963 74.4299 54.2198C77.8143 53.3409 80.9726 52.5403 84.0846 51.772C86.1442 51.2596 88.2409 50.7493 90.3746 50.2411C95.3222 49.0418 100.487 47.8426 105.719 46.6772C110.1 45.6991 114.445 44.7581 118.633 43.8816C135.035 40.442 151.861 37.3342 168.641 34.6435C291.93 14.8662 484.839 5.81527 703.71 75.0171C703.898 75.0765 704.059 75.2012 704.163 75.3688C704.267 75.5364 704.308 75.7357 704.278 75.9307C704.248 76.1257 704.149 76.3035 703.999 76.432C703.849 76.5605 703.659 76.6311 703.461 76.6312V76.6312Z" fill="#CDF4D2"/>
<path d="M217.391 346.958C217.105 346.122 216.623 345.365 215.986 344.752C215.751 344.534 215.496 344.337 215.225 344.165C213.068 342.727 209.844 342.405 207.794 344.165C207.588 344.344 207.397 344.54 207.224 344.752C206.612 345.504 205.984 346.239 205.339 346.958C204.281 348.165 203.198 349.33 202.066 350.462C201.743 350.776 201.421 351.099 201.09 351.413C200.9 351.603 200.71 351.784 200.52 351.966C199.793 352.66 199.049 353.33 198.296 353.991C197.9 354.346 197.503 354.693 197.098 355.032C196.494 355.536 195.891 356.04 195.279 356.528C195.221 356.569 195.163 356.611 195.106 356.66C195.089 356.669 195.081 356.685 195.064 356.693C195.056 356.693 195.048 356.693 195.039 356.71C195.017 356.719 194.997 356.733 194.982 356.751C194.8 356.875 194.676 356.958 194.585 357.032C194.618 357.016 194.651 356.991 194.684 356.974C194.535 357.09 194.378 357.206 194.229 357.321C192.783 358.387 191.303 359.412 189.79 360.371C186.048 362.766 182.117 364.852 178.036 366.61C177.763 366.718 177.482 366.833 177.201 366.941C166.517 371.317 154.927 373.025 143.434 371.916C142.26 371.825 141.086 371.701 139.912 371.544C138.557 371.345 137.209 371.106 135.87 370.833C130.772 369.816 125.784 368.311 120.974 366.337C114.958 363.583 109.237 360.227 103.897 356.321C103.07 355.735 102.235 355.148 101.4 354.578C102.351 352.247 103.285 349.917 104.194 347.57C104.649 346.438 105.087 345.305 105.517 344.165C108.898 335.38 112.072 326.513 115.114 317.613C118.189 308.596 121.09 299.528 123.818 290.407C124.099 289.482 124.372 288.556 124.636 287.631C126.066 282.813 127.439 277.984 128.753 273.144C128.877 272.673 129.009 272.21 129.125 271.739C129.505 270.35 129.877 268.962 130.241 267.574C131.068 264.442 129.199 260.698 125.909 259.946C124.325 259.54 122.646 259.764 121.224 260.572C119.802 261.38 118.75 262.708 118.288 264.276C117.933 265.615 117.577 266.946 117.213 268.284C115.469 274.755 113.634 281.204 111.708 287.631C111.427 288.556 111.146 289.482 110.865 290.407C106.616 304.407 101.951 318.265 96.8703 331.984C96.2586 333.645 95.6387 335.3 95.0104 336.95C94.7046 337.76 94.3987 338.57 94.0846 339.38C93.4812 340.975 92.8612 342.57 92.2413 344.165C91.8858 345.099 91.5221 346.033 91.1584 346.958C90.9187 347.545 90.6872 348.132 90.4558 348.71C88.0989 347.864 85.6571 347.277 83.1733 346.958L82.7765 346.909C80.8508 346.677 78.9033 346.694 76.9819 346.958C74.1061 347.294 71.3392 348.257 68.8767 349.779C66.4142 351.301 64.3162 353.346 62.731 355.768C58.788 361.974 58.8376 370.85 64.3677 376.122C70.0631 381.552 78.6847 381.51 85.3886 378.114C88.9412 376.192 91.9368 373.385 94.0846 369.965C94.9075 368.726 95.6635 367.443 96.3496 366.123C96.5232 366.238 96.6967 366.354 96.8703 366.478C97.5316 366.941 98.1929 367.412 98.8459 367.875C102.651 370.63 106.661 373.092 110.84 375.238C119.827 379.705 129.501 382.629 139.458 383.89C139.681 383.915 139.896 383.948 140.119 383.973C141.218 384.113 142.326 384.221 143.434 384.312C159.323 385.509 175.232 382.258 189.377 374.924C190.576 374.304 191.763 373.654 192.94 372.973C194.767 371.916 196.552 370.792 198.296 369.602C199.247 368.957 200.173 368.304 201.09 367.618C205.1 364.666 208.837 361.361 212.258 357.743C213.556 356.379 214.798 354.972 215.986 353.52C217.109 352.332 217.756 350.773 217.805 349.14C217.798 348.394 217.658 347.655 217.391 346.958V346.958ZM80.5116 366.643C80.6852 366.519 80.8587 366.387 81.0241 366.255C80.9745 366.379 80.7347 366.519 80.5116 366.643H80.5116ZM83.165 363.974C82.9749 364.189 82.8013 364.404 82.6112 364.619C82.0328 365.266 81.4114 365.873 80.7513 366.437C80.6603 366.519 80.5612 366.602 80.462 366.676C80.4609 366.676 80.4598 366.676 80.4588 366.677C80.4578 366.677 80.4568 366.678 80.4561 366.679C80.4553 366.679 80.4547 366.68 80.4543 366.681C80.4539 366.682 80.4537 366.683 80.4537 366.685C80.3343 366.738 80.2183 366.799 80.1065 366.866C79.751 367.081 79.3873 367.28 79.0154 367.461C78.2871 367.729 77.5378 367.937 76.7753 368.081C76.1893 368.124 75.6012 368.129 75.0146 368.098H74.998C74.5931 368.008 74.1931 367.898 73.7994 367.767C73.601 367.668 73.4109 367.552 73.2208 367.437C73.1464 367.37 73.0802 367.304 73.0389 367.263C72.9582 367.189 72.8836 367.109 72.8158 367.023C72.8158 367.022 72.8156 367.021 72.8152 367.02C72.8148 367.019 72.8142 367.018 72.8134 367.017C72.8127 367.017 72.8117 367.016 72.8107 367.016C72.8097 367.015 72.8086 367.015 72.8075 367.015C72.7166 366.85 72.6174 366.685 72.5265 366.519C72.5218 366.515 72.5188 366.509 72.5182 366.503C72.4521 366.296 72.3942 366.081 72.3446 365.866C72.3267 365.489 72.3294 365.111 72.3529 364.734C72.4638 364.206 72.613 363.687 72.7993 363.181C72.9666 362.822 73.1571 362.474 73.3696 362.139C73.3862 362.106 73.4688 361.974 73.5598 361.825C73.568 361.817 73.568 361.817 73.568 361.809C73.692 361.668 73.816 361.52 73.9483 361.387C74.1715 361.139 74.4112 360.925 74.6509 360.701C75.1171 360.396 75.6001 360.118 76.0975 359.867C76.8866 359.586 77.6964 359.368 78.5195 359.214C79.7332 359.117 80.9531 359.128 82.1649 359.247C83.3126 359.446 84.445 359.725 85.554 360.082C84.8819 361.386 84.1167 362.639 83.2642 363.833C83.2311 363.883 83.1981 363.933 83.165 363.974V363.974ZM73.973 361.255C73.9002 361.372 73.8142 361.48 73.7168 361.577C73.7824 361.456 73.8691 361.346 73.973 361.255V361.255Z" fill="#436589"/>
<path d="M192.543 262.557C192.469 265.152 192.394 267.747 192.32 270.342C192.163 276.102 192 281.865 191.832 287.631C191.659 294.118 191.477 300.602 191.287 307.084C191.196 310.431 191.102 313.778 191.006 317.125C190.749 326.141 190.496 335.154 190.245 344.165C190.22 345.099 190.187 346.024 190.162 346.958C190.038 351.429 189.914 355.9 189.79 360.371C189.65 365.222 189.512 370.073 189.377 374.924C189.278 378.56 189.176 382.199 189.071 385.841C188.327 412.228 187.583 438.615 186.839 465.002C186.808 466.636 186.145 468.194 184.989 469.35C183.833 470.506 182.274 471.169 180.64 471.2C179 471.187 177.43 470.53 176.271 469.37C175.111 468.211 174.453 466.642 174.44 465.002C174.853 450.16 175.272 435.318 175.697 420.475C176.069 407.054 176.446 393.634 176.829 380.213C176.953 375.792 177.077 371.368 177.201 366.941C177.391 360.28 177.579 353.619 177.763 346.958C177.788 346.024 177.821 345.099 177.846 344.165C177.862 343.347 177.887 342.537 177.912 341.719C178.276 328.786 178.639 315.85 179.003 302.911C179.152 297.82 179.295 292.727 179.433 287.631C179.598 281.821 179.764 276.014 179.929 270.21C180.003 267.656 180.069 265.111 180.144 262.557C180.175 260.923 180.839 259.365 181.994 258.21C183.15 257.054 184.709 256.391 186.343 256.359C187.984 256.373 189.553 257.03 190.713 258.189C191.872 259.349 192.53 260.918 192.543 262.557V262.557Z" fill="#436589"/>
<path d="M532.637 264.277C526.136 288.887 518.366 313.145 509.358 336.952C506.873 343.519 504.33 350.073 501.612 356.548L502.237 355.068C501.024 358.152 499.474 361.093 497.616 363.837C497.49 364.014 497.361 364.189 497.23 364.363C497.873 363.542 497.995 363.38 497.597 363.876C497.387 364.125 497.179 364.374 496.962 364.616C496.383 365.264 495.762 365.872 495.103 366.437C494.937 366.579 494.768 366.718 494.597 366.854L495.372 366.251C495.282 366.464 494.651 366.745 494.454 366.865C493.817 367.25 493.153 367.586 492.466 367.872L493.947 367.248C492.822 367.701 491.649 368.022 490.45 368.207L492.098 367.985C490.92 368.148 489.726 368.161 488.545 368.023L490.193 368.245C489.227 368.112 488.281 367.857 487.379 367.487L488.86 368.112C488.378 367.902 487.914 367.654 487.472 367.371C487.248 367.225 486.558 366.703 487.46 367.391C488.397 368.107 487.58 367.453 487.387 367.263C487.227 367.104 487.082 366.932 486.925 366.771C486.195 366.023 487.748 368.057 487.253 367.183C486.988 366.745 486.746 366.293 486.527 365.83L487.152 367.311C486.867 366.606 486.665 365.871 486.55 365.12L486.771 366.768C486.653 365.833 486.652 364.888 486.769 363.954L486.547 365.601C486.699 364.558 486.975 363.537 487.37 362.56L486.745 364.041C487.02 363.383 487.345 362.748 487.718 362.141C487.89 361.827 488.092 361.531 488.321 361.256C488.361 361.269 487.272 362.506 487.85 361.881C488.001 361.718 488.143 361.546 488.295 361.384C488.54 361.125 488.803 360.887 489.061 360.642C489.924 359.82 487.852 361.44 488.849 360.79C489.571 360.315 490.331 359.901 491.121 359.551L489.64 360.176C490.964 359.632 492.351 359.26 493.769 359.068L492.121 359.29C493.897 359.086 495.691 359.107 497.462 359.353L495.814 359.132C498.055 359.471 500.247 360.088 502.337 360.966L500.856 360.341C505.311 362.254 509.257 365.093 513.196 367.877C517 370.631 521.009 373.091 525.187 375.237C534.174 379.704 543.849 382.63 553.806 383.892C568.087 385.641 582.577 383.777 595.949 378.47C609.321 373.164 621.146 364.585 630.339 353.52C631.461 352.331 632.107 350.772 632.155 349.138C632.143 347.496 631.492 345.924 630.339 344.755C628.065 342.668 623.768 342.078 621.572 344.755C619.49 347.296 617.252 349.705 614.87 351.967C613.759 353.022 612.617 354.044 611.446 355.033C610.778 355.598 610.099 356.152 609.412 356.695C609.087 356.952 608.074 357.636 609.63 356.532C609.273 356.785 608.931 357.061 608.579 357.321C603.373 361.158 597.732 364.366 591.772 366.878L593.253 366.253C586.858 368.935 580.142 370.775 573.273 371.726L574.921 371.505C567.855 372.434 560.696 372.423 553.633 371.473L555.281 371.695C548.219 370.725 541.312 368.844 534.734 366.1L536.215 366.724C529.866 363.916 523.842 360.427 518.247 356.319C515.335 354.163 512.264 352.231 509.061 350.539C505.329 348.633 501.288 347.406 497.126 346.912C489.324 345.994 481.373 349.033 477.084 355.772C473.136 361.974 473.187 370.848 478.715 376.122C484.409 381.554 493.031 381.508 499.741 378.11C506.203 374.838 510.084 368.04 512.814 361.63C518.956 347.205 524.395 332.447 529.462 317.613C534.475 302.938 539.021 288.114 543.1 273.142C543.605 271.287 544.103 269.431 544.593 267.573C545.421 264.442 543.551 260.697 540.263 259.948C538.679 259.541 536.998 259.764 535.575 260.572C534.152 261.379 533.099 262.708 532.637 264.277L532.637 264.277Z" fill="#436589"/>
<path d="M594.495 262.557L592.263 341.721L590.044 420.473L588.788 465.002C588.802 466.642 589.46 468.21 590.62 469.37C591.779 470.529 593.348 471.187 594.988 471.2C596.622 471.169 598.181 470.506 599.337 469.35C600.493 468.195 601.156 466.636 601.188 465.002L603.419 385.838L605.639 307.087L606.894 262.557C606.88 260.918 606.223 259.349 605.063 258.19C603.903 257.03 602.335 256.373 600.695 256.359C599.06 256.391 597.502 257.054 596.346 258.209C595.19 259.365 594.527 260.923 594.495 262.557V262.557Z" fill="#436589"/>
<path opacity="0.2" d="M379.906 442.9H381.832V355.266H426.741V353.347H381.832V316.37H416.513C416.004 315.723 415.481 315.085 414.943 314.455H381.832V290.032C381.195 289.761 380.553 289.499 379.906 289.253V314.455H342.17V283.163C341.523 283.193 340.886 283.237 340.245 283.291V314.455H310.139V291.108C309.492 291.394 308.856 291.695 308.224 292.011V314.455H282.916V316.37H308.224V353.347H282.916V355.266H308.224V442.9H310.139V355.266C314.093 355.266 318.008 356.044 321.661 357.556C325.314 359.068 328.633 361.285 331.429 364.08C334.224 366.875 336.442 370.193 337.955 373.845C339.467 377.497 340.245 381.411 340.245 385.364V442.9H342.17V355.266H379.906V442.9ZM310.139 353.347V316.37H340.245V353.347H310.139ZM342.17 353.347V316.37H342.925C347.782 316.37 352.591 317.327 357.078 319.185C361.565 321.044 365.642 323.767 369.076 327.201C372.51 330.635 375.234 334.711 377.092 339.197C378.951 343.683 379.907 348.491 379.906 353.347H342.17Z" fill="#436589"/>
<path d="M368.15 416.624C365.726 427.433 359.921 437.188 351.576 444.474C350.964 445.003 350.353 445.515 349.716 446.019C348.17 446.16 346.636 446.303 345.112 446.449C343.847 446.565 342.599 446.689 341.359 446.805L341.136 446.829L340.979 445.474L340.351 439.987C337.914 436.009 336.403 431.534 335.931 426.893C335.459 422.252 336.037 417.565 337.623 413.178C339.805 407.294 343.756 402.096 347.641 396.939C353.006 389.816 358.222 382.775 358.412 374.089C361.052 377.466 363.247 381.169 364.943 385.105C363.342 385.858 361.905 386.917 360.71 388.221C360.371 388.592 360.032 389.113 360.264 389.559C360.462 389.94 360.958 390.03 361.388 390.08C362.421 390.187 363.463 390.295 364.496 390.402C365.323 390.493 366.149 390.576 366.976 390.667C367.976 393.948 368.654 397.319 369.001 400.732C369.558 406.041 369.271 411.405 368.15 416.624V416.624Z" fill="#436589"/>
<path d="M395.594 394.964C390.716 398.509 387.865 403.608 385.649 409.228C383.379 409.954 381.336 411.259 379.722 413.013C379.384 413.385 379.045 413.905 379.276 414.352C379.474 414.732 379.97 414.823 380.4 414.872C381.434 414.98 382.475 415.087 383.508 415.195C381.293 421.839 379.26 428.715 375.341 434.326C372.736 438.031 369.339 441.11 365.397 443.342C364.322 443.954 363.213 444.503 362.074 444.986C357.875 445.309 353.756 445.653 349.716 446.019C348.17 446.16 346.636 446.303 345.112 446.449C343.847 446.565 342.599 446.689 341.359 446.805C341.351 446.35 341.351 445.895 341.359 445.441C341.621 433.333 346.076 421.691 353.965 412.5C354.337 412.071 354.717 411.649 355.106 411.228C359.103 406.96 363.803 403.41 369.001 400.732C377.193 396.474 386.374 394.483 395.594 394.964V394.964Z" fill="#296643"/>
<path d="M346.542 442.21L345.591 445.019L345.112 446.449C343.847 446.565 342.599 446.689 341.359 446.804L341.136 446.829C339.764 446.97 338.4 447.11 337.036 447.251C336.68 446.838 336.325 446.416 335.978 445.986C327.35 435.541 323.208 422.105 324.458 408.616C325.708 395.127 332.248 382.681 342.649 373.998C341.557 379.709 342.83 385.179 344.922 390.609C344.699 390.7 344.484 390.791 344.277 390.89C342.677 391.643 341.239 392.701 340.045 394.005C339.706 394.377 339.367 394.898 339.598 395.344C339.797 395.724 340.293 395.815 340.723 395.865C341.756 395.972 342.797 396.08 343.831 396.187C344.657 396.278 345.484 396.361 346.311 396.452C346.699 396.493 347.088 396.534 347.476 396.576C347.534 396.699 347.584 396.815 347.641 396.939C349.997 402.046 352.535 407.178 353.965 412.5C354.324 413.836 354.605 415.19 354.808 416.558C355.445 421.18 355.032 425.886 353.601 430.326C352.17 434.767 349.757 438.829 346.542 442.21V442.21Z" fill="#296643"/>
<path d="M429.748 322.348C422.632 308.471 411.607 296.795 398.64 288.215C385.632 279.646 370.706 274.428 355.191 273.026C353.158 272.841 351.119 272.733 349.075 272.701C346.66 272.665 310.335 283.14 298.166 291.693C286.004 300.143 275.999 311.332 268.959 324.359C261.931 337.457 258.475 352.173 258.936 367.029C259.538 381.975 263.705 396.56 271.089 409.569C278.373 422.536 288.714 433.528 301.215 441.589C313.893 449.676 326.629 471.121 341.599 471.878C356.681 472.64 373.882 452.412 387.637 446.27C401.393 440.077 413.285 430.388 422.129 418.168C430.722 406.193 436.281 392.312 438.329 377.717C440.457 362.773 439.465 347.361 434.361 333.078C433.051 329.408 431.51 325.824 429.748 322.348C428.277 319.452 423.965 318.385 421.266 320.125C419.875 320.981 418.868 322.34 418.454 323.919C418.039 325.499 418.25 327.177 419.041 328.605C419.905 330.306 420.709 332.035 421.451 333.793L420.826 332.312C423.637 339.068 425.548 346.164 426.511 353.417L426.289 351.769C427.313 359.638 427.295 367.608 426.234 375.473L426.456 373.825C425.384 381.689 423.285 389.378 420.211 396.695L420.836 395.215C419.255 398.948 417.412 402.565 415.321 406.039C414.262 407.794 413.137 409.508 411.948 411.181C411.426 411.915 410.888 412.636 410.345 413.355C409.638 414.293 411.31 412.129 410.579 413.05C410.454 413.207 410.33 413.364 410.205 413.52C409.83 413.989 409.449 414.454 409.063 414.915C406.486 417.989 403.673 420.858 400.651 423.496C399.898 424.153 399.133 424.795 398.355 425.422C397.967 425.735 397.584 426.061 397.18 426.352C397.196 426.341 398.486 425.361 397.722 425.93C397.482 426.108 397.244 426.29 397.003 426.468C395.4 427.656 393.754 428.783 392.065 429.85C388.177 432.299 384.098 434.43 379.868 436.224L381.349 435.599C374.051 438.671 366.381 440.769 358.537 441.84L360.185 441.619C352.344 442.678 344.397 442.692 336.553 441.66L338.201 441.882C331.071 440.925 324.097 439.04 317.456 436.275L318.937 436.9C315.091 435.276 311.382 433.344 307.847 431.123C306.098 430.021 304.394 428.851 302.736 427.612C302.499 427.436 302.265 427.257 302.029 427.079C301.272 426.508 302.573 427.5 302.583 427.507C302.143 427.191 301.72 426.854 301.314 426.495C300.513 425.843 299.725 425.176 298.949 424.493C295.845 421.76 292.945 418.802 290.275 415.643C289.607 414.853 288.953 414.051 288.313 413.238C288.036 412.886 287.53 412.172 288.647 413.675C288.5 413.477 288.348 413.283 288.199 413.086C287.843 412.614 287.491 412.138 287.145 411.658C285.931 409.979 284.777 408.259 283.683 406.497C281.211 402.509 279.054 398.334 277.231 394.011L277.856 395.492C274.873 388.396 272.833 380.939 271.788 373.313L272.01 374.961C271.067 367.932 271.054 360.809 271.97 353.776L271.748 355.423C272.687 348.612 274.52 341.955 277.199 335.623L276.574 337.104C278.26 333.14 280.249 329.312 282.522 325.653C283.66 323.822 284.867 322.036 286.141 320.294C286.43 319.898 286.723 319.505 287.019 319.114C287.287 318.76 288.023 317.88 286.767 319.435C286.89 319.283 287.008 319.126 287.13 318.972C287.829 318.086 288.545 317.214 289.279 316.356C292.054 313.108 295.061 310.064 298.275 307.249C299.087 306.537 299.912 305.84 300.75 305.159C301.131 304.849 301.514 304.542 301.9 304.239C302.054 304.118 302.211 303.999 302.364 303.877C300.713 305.19 301.906 304.234 302.28 303.953C304.007 302.659 305.781 301.431 307.6 300.266C311.644 297.681 315.899 295.439 320.319 293.566L318.838 294.191C325.252 291.498 353.672 285.142 358.841 285.836L357.193 285.615C364.79 286.675 372.216 288.726 379.28 291.715L377.799 291.091C381.379 292.61 384.858 294.357 388.215 296.321C389.892 297.304 391.536 298.341 393.148 299.431C393.91 299.947 394.664 300.474 395.411 301.013C395.784 301.283 396.155 301.555 396.524 301.83C396.729 301.983 396.932 302.138 397.137 302.291C397.996 302.935 395.953 301.359 396.854 302.071C399.868 304.438 402.73 306.992 405.424 309.718C406.747 311.065 408.025 312.455 409.257 313.887C409.889 314.622 410.508 315.368 411.114 316.125C411.415 316.501 412.441 317.861 411.184 316.195C411.491 316.602 411.802 317.007 412.105 317.417C414.717 320.952 417.037 324.694 419.041 328.605C420.524 331.495 424.817 332.573 427.524 330.828C428.915 329.973 429.922 328.614 430.337 327.034C430.751 325.455 430.54 323.776 429.748 322.348Z" fill="#436589"/>
<path d="M357.51 423.496C356.87 423.526 356.236 423.358 355.695 423.015C355.154 422.673 354.731 422.172 354.484 421.581C354.236 420.99 354.177 420.337 354.313 419.712C354.449 419.086 354.775 418.517 355.245 418.082C355.324 417.769 355.38 417.544 355.459 417.231C355.431 417.163 355.403 417.095 355.374 417.027C352.498 410.17 334.143 429.285 333.349 435.73C333 438.579 333.147 441.466 333.785 444.265C327.839 431.299 324.752 417.206 324.732 402.942C324.731 399.363 324.93 395.786 325.328 392.229C325.657 389.313 326.113 386.418 326.697 383.543C329.884 367.946 336.726 353.327 346.661 340.887C352.343 341.204 357.323 340.339 357.804 329.33C357.889 327.371 359.342 325.676 359.662 323.746C359.12 323.818 358.569 323.862 358.026 323.898C357.857 323.906 357.679 323.915 357.51 323.924L357.447 323.927C356.851 323.954 356.259 323.808 355.744 323.506C355.229 323.205 354.812 322.761 354.544 322.228C354.275 321.696 354.166 321.097 354.23 320.503C354.294 319.91 354.528 319.348 354.904 318.885C355.138 318.597 355.373 318.309 355.607 318.021C355.963 317.576 356.328 317.141 356.683 316.696C356.724 316.654 356.763 316.61 356.799 316.563C357.208 316.056 357.617 315.558 358.026 315.051C357.28 313.893 356.275 312.922 355.092 312.216C350.992 309.815 345.336 311.478 342.375 315.185C339.405 318.892 338.845 324.093 339.876 328.725C340.891 332.666 342.569 336.406 344.838 339.785C344.616 340.069 344.385 340.345 344.162 340.629C340.098 345.854 336.556 351.464 333.587 357.379C334.427 350.818 324.154 327.126 320.181 322.108C315.409 316.08 305.624 318.71 304.783 326.352C304.775 326.426 304.767 326.5 304.759 326.574C305.349 326.906 305.927 327.26 306.492 327.633C307.202 328.108 307.752 328.785 308.07 329.577C308.388 330.37 308.46 331.239 308.275 332.073C308.09 332.906 307.658 333.665 307.035 334.248C306.412 334.832 305.627 335.214 304.783 335.344L304.697 335.357C296.798 346.632 322.12 375.979 328.458 369.39C325.475 377.842 323.603 386.646 322.891 395.581C322.488 400.852 322.512 406.147 322.962 411.415L322.936 411.228C321.527 399.756 297.367 382.698 290.312 384.119C286.248 384.938 282.245 384.752 282.862 388.85C282.872 388.916 282.882 388.981 282.892 389.046C283.987 389.492 285.053 390.006 286.084 390.584C286.674 390.917 287.252 391.271 287.817 391.644C288.527 392.118 289.077 392.796 289.396 393.588C289.714 394.381 289.785 395.25 289.601 396.084C289.416 396.917 288.984 397.676 288.36 398.259C287.737 398.843 286.952 399.225 286.108 399.355L286.022 399.368C285.96 399.377 285.906 399.386 285.844 399.395C282.249 411.763 308.913 431.724 325.123 425.373H325.132C326.739 432.352 329.066 439.145 332.077 445.643H356.888C356.977 445.367 357.057 445.083 357.137 444.807C354.84 444.951 352.535 444.814 350.272 444.398C352.113 442.14 353.953 439.864 355.794 437.606C355.835 437.564 355.874 437.519 355.91 437.473C356.843 436.317 357.786 435.17 358.72 434.014L358.72 434.013C358.77 430.47 358.363 426.936 357.51 423.497L357.51 423.496ZM329.098 367.621L329.111 367.603L329.098 367.638V367.621ZM323.603 417.149L323.389 416.669C323.398 416.322 323.398 415.976 323.389 415.62C323.389 415.522 323.371 415.424 323.371 415.327C323.451 415.94 323.523 416.553 323.611 417.167L323.603 417.149Z" fill="#436589"/>
<path d="M78.7343 371.883C83.7562 371.883 87.8271 367.813 87.8271 362.792C87.8271 357.772 83.7562 353.702 78.7343 353.702C73.7125 353.702 69.6415 357.772 69.6415 362.792C69.6415 367.813 73.7125 371.883 78.7343 371.883Z" fill="#436589"/>
<path d="M187.848 471.051C192.87 471.051 196.941 466.981 196.941 461.961C196.941 456.94 192.87 452.87 187.848 452.87C182.826 452.87 178.755 456.94 178.755 461.961C178.755 466.981 182.826 471.051 187.848 471.051Z" fill="#436589"/>
<path d="M601.983 471.051C607.005 471.051 611.076 466.981 611.076 461.961C611.076 456.94 607.005 452.87 601.983 452.87C596.962 452.87 592.891 456.94 592.891 461.961C592.891 466.981 596.962 471.051 601.983 471.051Z" fill="#436589"/>
<path d="M624.302 355.355C629.324 355.355 633.395 351.285 633.395 346.264C633.395 341.244 629.324 337.174 624.302 337.174C619.28 337.174 615.209 341.244 615.209 346.264C615.209 351.285 619.28 355.355 624.302 355.355Z" fill="#436589"/>
<path d="M597.85 271.061C602.872 271.061 606.943 266.991 606.943 261.971C606.943 256.95 602.872 252.88 597.85 252.88C592.829 252.88 588.758 256.95 588.758 261.971C588.758 266.991 592.829 271.061 597.85 271.061Z" fill="#436589"/>
<path d="M218.433 346.264C218.427 348.586 217.529 350.817 215.924 352.495C214.319 354.174 212.13 355.171 209.81 355.281C207.49 355.391 205.216 354.604 203.46 353.085C201.704 351.566 200.599 349.429 200.374 347.118C200.149 344.807 200.822 342.498 202.253 340.669C203.683 338.84 205.763 337.63 208.061 337.291C210.358 336.952 212.698 337.509 214.597 338.847C216.495 340.185 217.806 342.201 218.259 344.479C218.376 345.067 218.434 345.665 218.433 346.264V346.264Z" fill="#436589"/>
<path d="M400.289 297.506C405.311 297.506 409.382 293.436 409.382 288.416C409.382 283.395 405.311 279.325 400.289 279.325C395.267 279.325 391.196 283.395 391.196 288.416C391.196 293.436 395.267 297.506 400.289 297.506Z" fill="#436589"/>
<path d="M310.187 288.416C310.182 290.738 309.284 292.969 307.679 294.647C306.074 296.325 303.885 297.323 301.565 297.433C299.245 297.542 296.971 296.756 295.215 295.237C293.458 293.717 292.353 291.581 292.129 289.27C291.904 286.959 292.576 284.65 294.007 282.82C295.438 280.991 297.517 279.782 299.815 279.443C302.113 279.104 304.453 279.661 306.351 280.999C308.25 282.337 309.561 284.353 310.014 286.631C310.13 287.218 310.189 287.816 310.187 288.416V288.416Z" fill="#436589"/>
<path d="M192.808 261.971C192.802 264.293 191.904 266.524 190.299 268.202C188.694 269.881 186.505 270.878 184.185 270.988C181.865 271.097 179.591 270.311 177.835 268.792C176.078 267.272 174.974 265.136 174.749 262.825C174.524 260.514 175.197 258.205 176.627 256.376C178.058 254.546 180.138 253.337 182.435 252.998C184.733 252.659 187.073 253.216 188.972 254.554C190.87 255.892 192.181 257.908 192.634 260.186C192.751 260.773 192.809 261.371 192.808 261.971V261.971Z" fill="#436589"/>
<path d="M495.35 375.188C500.372 375.188 504.443 371.118 504.443 366.098C504.443 361.077 500.372 357.007 495.35 357.007C490.328 357.007 486.257 361.077 486.257 366.098C486.257 371.118 490.328 375.188 495.35 375.188Z" fill="#436589"/>
<path d="M352.345 292.548C359.649 292.548 365.571 286.628 365.571 279.325C365.571 272.023 359.649 266.103 352.345 266.103C345.04 266.103 339.119 272.023 339.119 279.325C339.119 286.628 345.04 292.548 352.345 292.548Z" fill="#436589"/>
<path d="M710.016 471.746L0.984232 472C0.85498 472 0.726991 471.975 0.607577 471.925C0.488164 471.876 0.379669 471.803 0.288274 471.712C0.19688 471.62 0.124372 471.512 0.0749097 471.393C0.0254471 471.273 0 471.145 0 471.016C0 470.887 0.0254471 470.759 0.0749097 470.639C0.124372 470.52 0.19688 470.412 0.288274 470.32C0.379669 470.229 0.488164 470.156 0.607577 470.107C0.726991 470.057 0.85498 470.032 0.984232 470.032L710.016 469.778C710.276 469.779 710.526 469.883 710.71 470.067C710.894 470.252 710.997 470.502 710.997 470.762C710.997 471.023 710.894 471.272 710.71 471.457C710.526 471.641 710.276 471.745 710.016 471.746V471.746Z" fill="#CDF4D2"/>
</g>
<defs>
<clipPath id="clip0_504_684">
<rect width="711" height="472" fill="white"/>
</clipPath>
</defs>
</svg>
