<svg width="704" height="440" viewBox="0 0 704 440" fill="none" xmlns="http://www.w3.org/2000/svg">
<g clip-path="url(#clip0_505_1198)">
<path d="M183.99 268.154C257.959 268.154 317.922 208.126 317.922 134.077C317.922 60.0284 257.959 0 183.99 0C110.021 0 50.0575 60.0284 50.0575 134.077C50.0575 208.126 110.021 268.154 183.99 268.154Z" fill="#DEEAD7"/>
<path d="M0 32.1926C0 80.9753 30.5706 120.45 68.35 120.45Z" fill="#2F2E41"/>
<path d="M68.35 120.45C68.35 71.1187 102.465 31.2009 144.625 31.2009Z" fill="#296643"/>
<path d="M24.7645 36.6149C24.7645 82.9532 44.2588 120.45 68.35 120.45Z" fill="#296643"/>
<path d="M68.35 120.45C68.35 57.4158 107.782 6.40967 156.512 6.40967Z" fill="#2F2E41"/>
<path d="M53.9709 121.072C53.9709 121.072 63.6641 120.773 66.5854 118.691C69.5067 116.608 81.4959 114.122 82.2206 117.461C82.9453 120.801 96.7876 134.072 85.8441 134.16C74.9006 134.249 60.4162 132.454 57.5005 130.676C54.5849 128.898 53.9709 121.072 53.9709 121.072Z" fill="#CDF4D2"/>
<path opacity="0.2" d="M86.0394 132.998C75.0959 133.086 60.6115 131.291 57.6959 129.513C55.4754 128.159 54.5906 123.301 54.2946 121.059C54.0895 121.068 53.971 121.072 53.971 121.072C53.971 121.072 54.5849 128.898 57.5006 130.676C60.4162 132.454 74.9006 134.249 85.8441 134.16C89.0031 134.135 90.0942 133.01 90.0343 131.343C89.5954 132.35 88.3906 132.979 86.0394 132.998Z" fill="#436589"/>
<path d="M124.884 283.224C189.823 283.224 242.467 276.054 242.467 267.21C242.467 258.366 189.823 251.197 124.884 251.197C59.9438 251.197 7.29971 258.366 7.29971 267.21C7.29971 276.054 59.9438 283.224 124.884 283.224Z" fill="#436589"/>
<path opacity="0.1" d="M124.884 280.655C179.405 280.655 223.604 274.636 223.604 267.21C223.604 259.785 179.405 253.766 124.884 253.766C70.3619 253.766 26.1634 259.785 26.1634 267.21C26.1634 274.636 70.3619 280.655 124.884 280.655Z" fill="#436589"/>
<path d="M526.052 440C624.33 440 704 429.15 704 415.765C704 402.381 624.33 391.531 526.052 391.531C427.774 391.531 348.104 402.381 348.104 415.765C348.104 429.15 427.774 440 526.052 440Z" fill="#436589"/>
<path d="M195.308 420.881C254.344 420.881 302.203 414.363 302.203 406.323C302.203 398.283 254.344 391.765 195.308 391.765C136.272 391.765 88.4137 398.283 88.4137 406.323C88.4137 414.363 136.272 420.881 195.308 420.881Z" fill="#436589"/>
<path d="M290.884 394.049C347.476 408.526 456.256 375.164 468.203 337.396" stroke="#2F2E41" stroke-width="2" stroke-miterlimit="10"/>
<path d="M194.679 163.033C194.679 163.033 276.422 140.372 281.453 213.391C286.483 286.409 214.172 307.182 270.763 321.66" stroke="#2F2E41" stroke-width="2" stroke-miterlimit="10"/>
<path d="M115.705 338.204C115.705 338.204 140.273 331.393 141.785 353.339C143.297 375.286 121.563 381.529 138.572 385.88" stroke="#2F2E41" stroke-width="2" stroke-miterlimit="10"/>
<path d="M489.642 354.543L484.689 386.202C484.689 386.202 460.303 399.171 477.45 399.553C494.596 399.934 575.373 399.553 575.373 399.553C575.373 399.553 590.995 399.553 566.229 385.821L561.275 352.636L489.642 354.543Z" fill="#2F2E41"/>
<path opacity="0.1" d="M474 399.209C477.894 395.74 484.689 392.126 484.689 392.126L489.642 360.467L561.275 360.534L566.229 391.745C572.004 394.947 575.582 397.402 577.675 399.285C580.856 398.558 584.332 395.858 566.229 385.821L561.275 352.636L489.642 354.543L484.689 386.202C484.689 386.202 464.198 397.101 474 399.209Z" fill="#436589"/>
<path d="M675.095 133.881H375.06C368.794 133.881 363.713 138.967 363.713 145.24V347.57C363.713 353.844 368.794 358.93 375.06 358.93H675.095C681.362 358.93 686.442 353.844 686.442 347.57V145.24C686.442 138.967 681.362 133.881 675.095 133.881Z" fill="#2F2E41"/>
<path d="M675.583 145.896H374.573V314.492H675.583V145.896Z" fill="#436589"/>
<path d="M525.078 142.464C526.13 142.464 526.983 141.61 526.983 140.556C526.983 139.503 526.13 138.649 525.078 138.649C524.026 138.649 523.173 139.503 523.173 140.556C523.173 141.61 524.026 142.464 525.078 142.464Z" fill="#DEEAD7"/>
<path d="M686.442 327.842V347.57C686.442 349.062 686.149 350.539 685.579 351.917C685.009 353.296 684.173 354.548 683.119 355.603C682.066 356.658 680.815 357.494 679.438 358.065C678.061 358.636 676.585 358.93 675.095 358.929H375.06C373.57 358.93 372.095 358.636 370.718 358.065C369.341 357.494 368.09 356.658 367.036 355.603C365.983 354.548 365.147 353.296 364.577 351.917C364.007 350.539 363.713 349.062 363.713 347.57V327.842H686.442Z" fill="#2F2E41"/>
<path d="M609.285 420.15V423.965H404.292V420.913L404.575 420.15L409.627 406.418H605.093L609.285 420.15Z" fill="#2F2E41"/>
<path d="M688.172 416.416C687.799 418.014 686.389 419.7 683.204 421.295C671.773 427.016 648.53 419.769 648.53 419.769C648.53 419.769 630.622 416.717 630.622 408.707C631.125 408.363 631.649 408.05 632.192 407.773C636.998 405.228 652.932 398.947 681.186 408.039C683.267 408.693 685.126 409.912 686.556 411.562C687.701 412.904 688.599 414.605 688.172 416.416Z" fill="#2F2E41"/>
<path opacity="0.1" d="M688.172 416.416C674.181 421.783 661.71 422.183 648.911 413.285C642.457 408.799 636.593 407.689 632.192 407.773C636.998 405.227 652.932 398.947 681.186 408.039C683.267 408.693 685.126 409.912 686.556 411.562C687.701 412.904 688.599 414.605 688.172 416.416Z" fill="#436589"/>
<path d="M670.63 413.284C673.365 413.284 675.583 412.601 675.583 411.759C675.583 410.916 673.365 410.233 670.63 410.233C667.894 410.233 665.676 410.916 665.676 411.759C665.676 412.601 667.894 413.284 670.63 413.284Z" fill="#DEEAD7"/>
<path d="M525.078 350.729C529.076 350.729 532.317 347.484 532.317 343.481C532.317 339.479 529.076 336.234 525.078 336.234C521.079 336.234 517.838 339.479 517.838 343.481C517.838 347.484 521.079 350.729 525.078 350.729Z" fill="#DEEAD7"/>
<path opacity="0.1" d="M609.285 420.15V423.965H404.292V420.913L404.575 420.15H609.285Z" fill="#436589"/>
<path d="M199.081 100.086H68.2924V252.418H199.081V100.086Z" fill="#2F2E41"/>
<path d="M212.286 84.9785H55.0878V139.113H212.286V84.9785Z" fill="#436589"/>
<path d="M212.286 149.185H55.0878V203.319H212.286V149.185Z" fill="#436589"/>
<path d="M212.286 213.391H55.0878V267.525H212.286V213.391Z" fill="#436589"/>
<path opacity="0.4" d="M180.846 94.4207H170.785V104.492H180.846V94.4207Z" fill="#296643"/>
<path opacity="0.8" d="M195.308 94.4207H185.248V104.492H195.308V94.4207Z" fill="#296643"/>
<path d="M209.77 94.4207H199.71V104.492H209.77V94.4207Z" fill="#296643"/>
<path opacity="0.4" d="M180.846 157.997H170.785V168.069H180.846V157.997Z" fill="#296643"/>
<path opacity="0.8" d="M195.308 157.997H185.248V168.069H195.308V157.997Z" fill="#296643"/>
<path d="M209.77 157.997H199.71V168.069H209.77V157.997Z" fill="#296643"/>
<path opacity="0.4" d="M180.846 221.574H170.785V231.645H180.846V221.574Z" fill="#296643"/>
<path opacity="0.8" d="M195.308 221.574H185.248V231.645H195.308V221.574Z" fill="#296643"/>
<path d="M209.77 221.574H199.71V231.645H209.77V221.574Z" fill="#296643"/>
<path d="M199.081 388.383C226.515 388.383 248.755 366.119 248.755 338.655C248.755 311.191 226.515 288.927 199.081 288.927C171.646 288.927 149.406 311.191 149.406 338.655C149.406 366.119 171.646 388.383 199.081 388.383Z" fill="#2F2E41"/>
<path d="M191.535 377.682H176.444V404.75H191.535V377.682Z" fill="#2F2E41"/>
<path d="M221.717 377.682H206.626V404.75H221.717V377.682Z" fill="#2F2E41"/>
<path d="M189.02 409.785C195.966 409.785 201.596 407.672 201.596 405.064C201.596 402.457 195.966 400.343 189.02 400.343C182.075 400.343 176.444 402.457 176.444 405.064C176.444 407.672 182.075 409.785 189.02 409.785Z" fill="#2F2E41"/>
<path d="M219.202 409.156C226.148 409.156 231.778 407.042 231.778 404.435C231.778 401.828 226.148 399.714 219.202 399.714C212.257 399.714 206.626 401.828 206.626 404.435C206.626 407.042 212.257 409.156 219.202 409.156Z" fill="#2F2E41"/>
<path d="M200.338 343.061C209.715 343.061 217.316 335.452 217.316 326.066C217.316 316.679 209.715 309.07 200.338 309.07C190.962 309.07 183.361 316.679 183.361 326.066C183.361 335.452 190.962 343.061 200.338 343.061Z" fill="#DEEAD7"/>
<path d="M200.338 331.731C203.464 331.731 205.998 329.195 205.998 326.066C205.998 322.937 203.464 320.401 200.338 320.401C197.213 320.401 194.679 322.937 194.679 326.066C194.679 329.195 197.213 331.731 200.338 331.731Z" fill="#436589"/>
<path d="M150.895 292.409C146.884 274.427 159.706 256.256 179.533 251.824C199.36 247.392 218.684 258.377 222.695 276.36C226.706 294.342 213.566 300.974 193.739 305.406C173.912 309.838 154.906 310.392 150.895 292.409Z" fill="#296643"/>
<path d="M245.671 328.737C258.281 323.334 267.131 315.741 265.436 311.778C263.742 307.814 252.145 308.982 239.535 314.385C226.924 319.788 218.075 327.381 219.769 331.345C221.463 335.308 233.06 334.14 245.671 328.737Z" fill="#2F2E41"/>
<path d="M152.61 362.099C165.22 356.696 174.07 349.103 172.375 345.139C170.681 341.176 159.084 342.344 146.474 347.747C133.863 353.15 125.014 360.743 126.708 364.706C128.402 368.67 139.999 367.502 152.61 362.099Z" fill="#2F2E41"/>
<path d="M228.005 353.133C228.005 358 215.487 367.611 201.596 367.611C187.705 367.611 174.558 358.63 174.558 353.763C174.558 348.896 187.705 349.986 201.596 349.986C215.487 349.986 228.005 348.266 228.005 353.133Z" fill="#DEEAD7"/>
</g>
<defs>
<clipPath id="clip0_505_1198">
<rect width="704" height="440" fill="white"/>
</clipPath>
</defs>
</svg>
