<svg width="300" height="199" viewBox="0 0 300 199" fill="none" xmlns="http://www.w3.org/2000/svg">
<g clip-path="url(#clip0_1258_4207)">
<path d="M92.0926 186.296C94.1224 181.825 96.1506 177.287 97.0315 172.442C97.9124 167.597 97.5427 162.339 95.0198 158.137C92.4969 153.934 87.5293 151.085 82.7887 152.035C78.895 152.815 75.7686 155.943 73.938 159.533C72.1074 163.124 71.3729 167.174 70.6609 171.155C70.4308 166.632 70.1872 162.036 68.7139 157.764C67.2407 153.491 64.3398 149.509 60.2055 147.856C56.0712 146.202 50.693 147.502 48.5139 151.449C45.4441 157.009 49.5146 164.808 45.9847 170.076C45.3792 164.792 39.9609 160.616 34.8113 161.466C29.6617 162.316 25.8108 168.021 26.8701 173.231C27.5005 176.331 29.5742 178.967 32.0534 180.872C34.5327 182.777 37.4161 184.985 40.2685 186.233L92.0926 186.296Z" fill="#1F2421"/>
<path d="M29.5739 165.2C33.6644 166.658 37.7926 168.133 41.527 170.413C44.874 172.456 47.8544 175.207 49.7367 178.73C50.7681 180.621 51.3804 182.718 51.5306 184.876C51.5577 185.327 52.2499 185.33 52.2226 184.876C51.9806 180.858 50.0607 177.181 47.4021 174.273C44.4874 171.085 40.7102 168.907 36.8104 167.217C34.4981 166.216 32.1284 165.364 29.7578 164.519C29.3366 164.369 29.1555 165.051 29.5739 165.2H29.5739Z" fill="#1F2421"/>
<path d="M53.1685 148.556C55.6816 152.826 57.6941 157.383 59.1646 162.132C60.638 166.88 61.5661 171.786 61.9303 176.752C62.1318 179.532 62.1538 182.322 61.9961 185.105C61.9705 185.559 62.6625 185.557 62.6881 185.105C62.9673 180.088 62.6696 175.054 61.801 170.108C60.9338 165.161 59.5086 160.334 57.5537 155.722C56.4563 153.132 55.191 150.619 53.766 148.2C53.7181 148.122 53.6425 148.067 53.5553 148.045C53.4681 148.024 53.376 148.037 53.2985 148.083C53.221 148.13 53.1641 148.205 53.1398 148.293C53.1156 148.381 53.1258 148.475 53.1685 148.556V148.556Z" fill="#1F2421"/>
<path d="M87.0383 152.61C83.4834 160.756 80.9818 169.339 79.5963 178.143C79.2073 180.616 78.9061 183.101 78.6929 185.598C78.6542 186.051 79.3464 186.048 79.3849 185.598C80.1384 176.814 81.9998 168.166 84.9231 159.867C85.7445 157.534 86.6487 155.234 87.6358 152.967C87.8149 152.555 87.2188 152.196 87.0383 152.61V152.61Z" fill="#1F2421"/>
<path d="M209.771 195.91L209.716 191.528L189.461 191.795L189.517 196.177L209.771 195.91Z" fill="#1F2421"/>
<path d="M216.968 196.888L214.076 196.879L212.288 193.626L214.22 190.383L216.908 190.391C216.235 189.518 215.311 188.881 214.265 188.571C213.219 188.26 212.105 188.291 211.077 188.659C210.05 189.027 209.161 189.714 208.535 190.624C207.91 191.533 207.579 192.619 207.59 193.73C207.6 194.84 207.951 195.92 208.593 196.817C209.235 197.714 210.137 198.384 211.171 198.732C212.205 199.08 213.32 199.09 214.36 198.759C215.399 198.428 216.311 197.774 216.968 196.888V196.888Z" fill="#1F2421"/>
<path d="M182.264 196.888L185.157 196.879L186.945 193.626L185.012 190.383L182.325 190.391C182.998 189.518 183.922 188.881 184.968 188.571C186.013 188.26 187.128 188.291 188.155 188.659C189.183 189.027 190.072 189.714 190.697 190.624C191.323 191.533 191.653 192.619 191.643 193.73C191.633 194.84 191.282 195.92 190.64 196.817C189.997 197.714 189.096 198.384 188.062 198.732C187.028 199.08 185.913 199.09 184.873 198.759C183.833 198.428 182.921 197.774 182.264 196.888V196.888Z" fill="#1F2421"/>
<path d="M299.565 186.677H0.434783C0.319471 186.677 0.208882 186.63 0.127345 186.547C0.045807 186.464 0 186.351 0 186.233C0 186.116 0.045807 186.003 0.127345 185.92C0.208882 185.836 0.319471 185.79 0.434783 185.79H299.565C299.681 185.79 299.791 185.836 299.873 185.92C299.954 186.003 300 186.116 300 186.233C300 186.351 299.954 186.464 299.873 186.547C299.791 186.63 299.681 186.677 299.565 186.677Z" fill="#DCE1DE"/>
<path d="M234.994 102.422C242.918 102.422 249.342 95.8704 249.342 87.7885C249.342 79.7065 242.918 73.1548 234.994 73.1548C227.07 73.1548 220.646 79.7065 220.646 87.7885C220.646 95.8704 227.07 102.422 234.994 102.422Z" fill="#DCE1DE"/>
<path d="M240.808 169.94L241.914 175.258L262.553 173.442L260.922 165.593L240.808 169.94Z" fill="#E37764"/>
<path d="M239.202 186.562L235.729 169.846L242.061 168.478L244.193 178.735C244.548 180.448 244.223 182.235 243.287 183.702C242.351 185.17 240.882 186.199 239.202 186.562L239.202 186.562Z" fill="#DCE1DE"/>
<path d="M227.878 169.656L225.555 174.549L205.945 167.739L209.373 160.518L227.878 169.656Z" fill="#E37764"/>
<path d="M222.525 177.367L227.005 167.93L232.831 170.807L225.53 186.186C224.765 185.808 224.081 185.28 223.516 184.632C222.951 183.985 222.516 183.23 222.237 182.411C221.958 181.592 221.84 180.725 221.889 179.86C221.939 178.994 222.155 178.147 222.525 177.367V177.367Z" fill="#DCE1DE"/>
<path d="M189.243 159.992C189.914 160.119 190.605 160.095 191.266 159.921C191.927 159.747 192.543 159.427 193.07 158.984C193.597 158.541 194.022 157.985 194.315 157.356C194.609 156.728 194.764 156.041 194.769 155.344L227.105 124.937L219.075 118.593L189.798 150.496C188.65 150.565 187.567 151.061 186.754 151.889C185.94 152.718 185.453 153.822 185.385 154.993C185.317 156.163 185.672 157.319 186.383 158.24C187.094 159.161 188.112 159.785 189.243 159.992H189.243Z" fill="#E37764"/>
<path d="M233.193 103.083C239.091 103.083 243.872 98.2067 243.872 92.1915C243.872 86.1763 239.091 81.3 233.193 81.3C227.296 81.3 222.515 86.1763 222.515 92.1915C222.515 98.2067 227.296 103.083 233.193 103.083Z" fill="#E37764"/>
<path d="M242.777 156.214C235.286 156.214 226.264 154.605 220.699 148.02L220.574 147.872L220.703 147.726C220.745 147.679 224.839 142.907 220.751 134.396L215.13 136.16L209.534 128.626L212.634 119.141L225.32 108.718C227.138 107.233 229.351 106.339 231.672 106.151C235.874 105.737 239.967 104.548 243.753 102.642C245.485 101.784 247.392 101.359 249.318 101.401L249.567 101.409C250.153 101.425 250.729 101.563 251.26 101.814C251.792 102.065 252.268 102.423 252.66 102.867C253.052 103.311 253.352 103.831 253.541 104.397C253.729 104.962 253.804 105.561 253.759 106.157C252.899 117.522 251.379 144.977 255.842 154.431L255.957 154.675L255.7 154.742C251.458 155.715 247.124 156.209 242.777 156.214V156.214Z" fill="#407760"/>
<path d="M222.168 147.875C222.168 147.875 193.907 145.215 190.864 153.64C187.82 162.065 191.298 166.056 196.516 167.83C201.733 169.604 214.342 171.821 214.342 171.821L219.994 164.726L234.777 165.613C234.777 165.613 251.248 175.357 255.803 185.778C256.78 188.033 258.338 189.977 260.311 191.401C262.285 192.825 264.6 193.677 267.01 193.866C270.662 194.125 273.907 192.719 273.907 186.898C273.907 173.595 255.646 154.527 255.646 154.527L222.168 147.875Z" fill="#DCE1DE"/>
<path d="M200.646 160.957C200.646 160.957 208.037 158.74 219.777 164.505Z" fill="#DCE1DE"/>
<path d="M222.54 85.2457C226.711 87.8422 231.412 89.4222 236.279 89.8628L234.831 88.093C235.885 88.4907 236.995 88.7154 238.118 88.7588C238.681 88.7755 239.239 88.6574 239.749 88.4141C240.259 88.1708 240.705 87.8091 241.053 87.3579C241.337 86.8894 241.506 86.3578 241.545 85.8084C241.584 85.259 241.492 84.7082 241.277 84.2028C240.836 83.1948 240.149 82.3188 239.282 81.6581C237.745 80.418 235.931 79.5851 234.002 79.2334C232.072 78.8818 230.088 79.0224 228.225 79.6427C226.947 80.0322 225.803 80.781 224.923 81.8032C224.49 82.3182 224.19 82.9346 224.048 83.5972C223.907 84.2598 223.929 84.9478 224.113 85.5995" fill="#DCE1DE"/>
<path d="M234.917 76.5402C236.814 72.0469 239.655 68.0324 243.237 64.7794C245.538 62.694 248.225 60.9023 251.258 60.3615C254.29 59.8206 257.707 60.7472 259.566 63.2488C261.087 65.2944 261.372 68.0348 261.204 70.5963C261.037 73.1577 260.475 75.6943 260.529 78.2609C260.584 80.8797 261.279 83.443 262.552 85.7182C263.824 87.9934 265.634 89.9085 267.816 91.2895C269.998 92.6705 272.484 93.4738 275.048 93.6264C277.612 93.779 280.172 93.2761 282.497 92.1633C279.879 93.6395 277.839 95.976 275.408 97.7543C272.978 99.5327 269.772 100.752 267.012 99.577C264.091 98.3336 262.751 94.9565 261.705 91.9099L257.039 78.3229C256.246 76.0132 255.413 73.635 253.794 71.8285C252.176 70.022 249.549 68.9209 247.321 69.8291C245.632 70.5175 244.533 72.1606 243.568 73.7332C242.604 75.3059 241.587 76.9792 239.958 77.8037C238.329 78.6283 235.915 78.1207 235.383 76.3472" fill="#DCE1DE"/>
<path d="M234.62 142.431L231.621 145.57L246.128 159.988L249.127 156.849L234.62 142.431Z" fill="#1F2421"/>
<path d="M246.309 157.108C245.716 157.728 245.316 158.515 245.161 159.367C245.006 160.219 245.103 161.099 245.438 161.895C245.773 162.692 246.333 163.369 247.045 163.841C247.758 164.313 248.592 164.559 249.442 164.548C250.291 164.537 251.119 164.269 251.819 163.778C252.52 163.287 253.061 162.595 253.377 161.79C253.692 160.986 253.765 160.103 253.589 159.255C253.412 158.408 252.993 157.632 252.385 157.027C251.568 156.216 250.47 155.769 249.33 155.784C248.191 155.799 247.104 156.275 246.309 157.108V157.108ZM250.705 161.477C250.451 161.743 250.125 161.926 249.769 162.003C249.412 162.08 249.042 162.048 248.703 161.91C248.365 161.773 248.074 161.536 247.868 161.23C247.662 160.923 247.549 160.562 247.545 160.19C247.54 159.819 247.643 159.454 247.842 159.143C248.04 158.831 248.325 158.587 248.659 158.44C248.994 158.294 249.364 158.252 249.722 158.319C250.08 158.387 250.41 158.562 250.671 158.821C251.021 159.168 251.221 159.644 251.227 160.142C251.234 160.64 251.046 161.12 250.705 161.477Z" fill="#1F2421"/>
<path d="M230.209 136.549L232.248 138.641L231.256 142.231L227.642 143.131L225.747 141.187C225.618 142.29 225.83 143.406 226.354 144.38C226.878 145.354 227.687 146.136 228.669 146.616C229.651 147.097 230.756 147.252 231.828 147.06C232.901 146.868 233.888 146.339 234.651 145.546C235.413 144.753 235.914 143.737 236.082 142.639C236.249 141.542 236.076 140.418 235.586 139.426C235.097 138.434 234.315 137.623 233.35 137.107C232.386 136.591 231.287 136.396 230.209 136.549V136.549Z" fill="#1F2421"/>
<path d="M238.581 156.252C238.397 156.252 238.213 156.241 238.029 156.221C236.956 156.094 235.956 155.601 235.192 154.821C234.428 154.042 233.945 153.022 233.821 151.928C233.744 151.245 233.81 150.553 234.014 149.898C234.218 149.243 234.556 148.639 235.004 148.126C235.453 147.613 236.003 147.203 236.618 146.922C237.233 146.641 237.899 146.496 238.573 146.495C238.787 146.497 239 146.513 239.211 146.544L253.81 130.693L252.286 125.511L259.941 122.012L262.086 127.36C262.804 129.172 262.931 131.171 262.448 133.062C261.964 134.953 260.895 136.635 259.4 137.857L243.33 150.895C243.347 151.054 243.355 151.213 243.356 151.373C243.355 152.059 243.213 152.737 242.939 153.364C242.664 153.99 242.264 154.55 241.763 155.008C240.891 155.812 239.756 156.255 238.581 156.252Z" fill="#E37764"/>
<path d="M249.994 103.531C250.5 103.301 251.047 103.179 251.601 103.17C252.154 103.161 252.704 103.267 253.217 103.481C253.73 103.694 254.195 104.011 254.585 104.413C254.974 104.814 255.28 105.292 255.484 105.817L263.037 125.26L251.298 133.242L249.994 103.531Z" fill="#407760"/>
<path d="M194.994 108.071V11.2024C194.99 8.23266 193.831 5.38571 191.772 3.28576C189.713 1.1858 186.922 0.00420199 184.01 0H34.7625C31.8508 0.00420316 29.0594 1.18581 27.0005 3.28576C24.9416 5.38571 23.7831 8.23266 23.7789 11.2024V108.071C23.7831 111.04 24.9416 113.887 27.0005 115.987C29.0594 118.087 31.8508 119.269 34.7625 119.273H184.01C186.922 119.269 189.713 118.087 191.772 115.987C193.831 113.887 194.99 111.04 194.994 108.071ZM34.7625 117.955C32.1932 117.952 29.7299 116.909 27.9131 115.056C26.0963 113.203 25.0743 110.691 25.0711 108.071V11.2024C25.0743 8.58188 26.0963 6.06957 27.9131 4.21656C29.7299 2.36354 32.1932 1.32111 34.7625 1.31793H184.01C186.58 1.32111 189.043 2.36354 190.86 4.21656C192.677 6.06957 193.699 8.58188 193.702 11.2024V108.071C193.699 110.691 192.677 113.203 190.86 115.056C189.043 116.909 186.58 117.952 184.01 117.955H34.7625Z" fill="#DCE1DE"/>
<path d="M193.702 17.4288H25.0711C24.8998 17.4288 24.7354 17.3593 24.6143 17.2357C24.4931 17.1122 24.425 16.9446 24.425 16.7698C24.425 16.595 24.4931 16.4274 24.6143 16.3038C24.7354 16.1803 24.8998 16.1108 25.0711 16.1108H193.702C193.873 16.1108 194.037 16.1803 194.159 16.3038C194.28 16.4274 194.348 16.595 194.348 16.7698C194.348 16.9446 194.28 17.1122 194.159 17.2357C194.037 17.3593 193.873 17.4288 193.702 17.4288Z" fill="#DCE1DE"/>
<path d="M36.0548 12.5203C37.8389 12.5203 39.2852 11.0452 39.2852 9.2255C39.2852 7.40581 37.8389 5.93066 36.0548 5.93066C34.2706 5.93066 32.8243 7.40581 32.8243 9.2255C32.8243 11.0452 34.2706 12.5203 36.0548 12.5203Z" fill="#407760"/>
<path d="M47.0383 12.5203C48.8225 12.5203 50.2688 11.0452 50.2688 9.2255C50.2688 7.40581 48.8225 5.93066 47.0383 5.93066C45.2542 5.93066 43.8079 7.40581 43.8079 9.2255C43.8079 11.0452 45.2542 12.5203 47.0383 12.5203Z" fill="#407760"/>
<path d="M58.022 12.5203C59.8061 12.5203 61.2525 11.0452 61.2525 9.2255C61.2525 7.40581 59.8061 5.93066 58.022 5.93066C56.2378 5.93066 54.7915 7.40581 54.7915 9.2255C54.7915 11.0452 56.2378 12.5203 58.022 12.5203Z" fill="#407760"/>
<path d="M82.1646 88.3483C82.1075 88.3483 82.051 88.3368 81.9982 88.3146C81.9455 88.2923 81.8975 88.2596 81.8572 88.2184C81.8168 88.1772 81.7848 88.1284 81.7629 88.0745C81.7411 88.0207 81.7298 87.9631 81.7298 87.9048C81.7298 83.2811 79.7425 80.7023 76.5362 78.0395C76.4918 78.0028 76.4549 77.9575 76.4276 77.9062C76.4004 77.8549 76.3833 77.7987 76.3774 77.7406C76.3715 77.6826 76.3769 77.624 76.3932 77.5681C76.4096 77.5122 76.4366 77.4601 76.4727 77.4149C76.5088 77.3697 76.5533 77.3321 76.6037 77.3045C76.654 77.2768 76.7092 77.2596 76.7661 77.2537C76.823 77.2478 76.8805 77.2535 76.9353 77.2703C76.99 77.2872 77.041 77.3148 77.0852 77.3518C80.4896 80.1788 82.5994 82.9304 82.5994 87.9048C82.5994 87.9631 82.5882 88.0207 82.5663 88.0745C82.5445 88.1284 82.5125 88.1772 82.4721 88.2184C82.4317 88.2596 82.3838 88.2923 82.331 88.3146C82.2783 88.3368 82.2217 88.3483 82.1646 88.3483Z" fill="#DCE1DE"/>
<path d="M44.9203 88.3483C44.8632 88.3483 44.8066 88.3368 44.7539 88.3146C44.7011 88.2923 44.6532 88.2596 44.6128 88.2184C44.5724 88.1772 44.5404 88.1284 44.5185 88.0745C44.4967 88.0207 44.4855 87.9631 44.4855 87.9048C44.4855 82.9304 46.5953 80.1788 49.9997 77.3518C50.0439 77.3148 50.0949 77.2872 50.1496 77.2703C50.2044 77.2535 50.2619 77.2478 50.3188 77.2537C50.3757 77.2596 50.4309 77.2768 50.4812 77.3045C50.5316 77.3321 50.5761 77.3697 50.6122 77.4149C50.6483 77.4601 50.6753 77.5122 50.6917 77.5681C50.708 77.624 50.7134 77.6826 50.7075 77.7406C50.7016 77.7987 50.6845 77.8549 50.6573 77.9062C50.63 77.9575 50.5931 78.0028 50.5487 78.0395C47.3423 80.7023 45.355 83.2816 45.355 87.9048C45.3551 87.9631 45.3438 88.0207 45.322 88.0745C45.3001 88.1284 45.2681 88.1772 45.2277 88.2184C45.1874 88.2596 45.1394 88.2923 45.0867 88.3146C45.0339 88.3368 44.9774 88.3483 44.9203 88.3483Z" fill="#DCE1DE"/>
<path d="M78.4405 57.9589C78.3508 57.9589 78.2632 57.9306 78.1898 57.8778C78.1164 57.825 78.0609 57.7504 78.0308 57.6641C78.0007 57.5779 77.9975 57.4842 78.0217 57.396C78.0459 57.3078 78.0962 57.2294 78.1658 57.1716C81.4617 54.4349 81.7299 50.5472 81.7299 46.1195C81.7299 46.0019 81.7757 45.8891 81.8572 45.8059C81.9388 45.7228 82.0493 45.676 82.1646 45.676C82.28 45.676 82.3906 45.7228 82.4721 45.8059C82.5536 45.8891 82.5994 46.0019 82.5994 46.1195C82.5994 50.7778 82.3071 54.8764 78.7148 57.8593C78.6375 57.9239 78.5405 57.9591 78.4405 57.9589V57.9589Z" fill="#DCE1DE"/>
<path d="M48.6446 57.7216C48.5446 57.7217 48.4477 57.6866 48.3703 57.622C44.7778 54.6389 44.4855 50.6479 44.4855 46.1195C44.4855 46.0019 44.5313 45.8891 44.6128 45.8059C44.6944 45.7228 44.8049 45.676 44.9203 45.676C45.0356 45.676 45.1462 45.7228 45.2277 45.8059C45.3092 45.8891 45.355 46.0019 45.355 46.1195C45.355 50.5702 45.6174 54.1926 48.9193 56.9343C48.9889 56.9921 49.0393 57.0705 49.0634 57.1587C49.0876 57.2469 49.0844 57.3405 49.0543 57.4268C49.0242 57.5131 48.9687 57.5877 48.8953 57.6405C48.8219 57.6933 48.7344 57.7216 48.6446 57.7216V57.7216Z" fill="#DCE1DE"/>
<path d="M87.7514 67.4711H78.4403C78.325 67.4711 78.2144 67.4244 78.1329 67.3412C78.0514 67.2581 78.0056 67.1453 78.0056 67.0277C78.0056 66.9101 78.0514 66.7973 78.1329 66.7141C78.2144 66.631 78.325 66.5842 78.4403 66.5842H87.7514C87.8667 66.5842 87.9773 66.631 88.0589 66.7141C88.1404 66.7973 88.1862 66.9101 88.1862 67.0277C88.1862 67.1453 88.1404 67.2581 88.0589 67.3412C87.9773 67.4244 87.8667 67.4711 87.7514 67.4711Z" fill="#DCE1DE"/>
<path d="M48.6448 67.4711H39.3336C39.2183 67.4711 39.1078 67.4244 39.0262 67.3412C38.9447 67.2581 38.8989 67.1453 38.8989 67.0277C38.8989 66.9101 38.9447 66.7973 39.0262 66.7141C39.1078 66.631 39.2183 66.5842 39.3336 66.5842H48.6448C48.7601 66.5842 48.8707 66.631 48.9522 66.7141C49.0337 66.7973 49.0795 66.9101 49.0795 67.0277C49.0795 67.1453 49.0337 67.2581 48.9522 67.3412C48.8707 67.4244 48.7601 67.4711 48.6448 67.4711Z" fill="#DCE1DE"/>
<path d="M63.5424 86.4489C63.4853 86.4489 63.4288 86.4375 63.376 86.4152C63.3233 86.3929 63.2754 86.3602 63.235 86.3191C63.1946 86.2779 63.1626 86.229 63.1407 86.1752C63.1189 86.1214 63.1077 86.0637 63.1077 86.0055V55.6163C63.1077 55.4987 63.1535 55.3859 63.235 55.3027C63.3166 55.2196 63.4271 55.1729 63.5424 55.1729C63.6578 55.1729 63.7684 55.2196 63.8499 55.3027C63.9314 55.3859 63.9772 55.4987 63.9772 55.6163V86.0055C63.9772 86.0637 63.966 86.1214 63.9442 86.1752C63.9223 86.229 63.8903 86.2779 63.8499 86.3191C63.8095 86.3602 63.7616 86.3929 63.7088 86.4152C63.6561 86.4375 63.5995 86.4489 63.5424 86.4489V86.4489Z" fill="#DCE1DE"/>
<path d="M63.5425 86.4489C59.4774 86.4441 55.5803 84.795 52.7059 81.8633C49.8315 78.9316 48.2146 74.9568 48.21 70.8108V59.4066C48.21 52.1038 54.0851 47.5671 63.5425 47.5671C73.43 47.5671 78.8751 51.7719 78.8751 59.4066V70.8108C78.8705 74.9568 77.2536 78.9317 74.3792 81.8634C71.5048 84.7951 67.6075 86.4442 63.5425 86.4489V86.4489ZM63.5425 48.454C56.5507 48.454 49.0796 51.3312 49.0796 59.4066V70.8108C49.0785 72.7486 49.4519 74.6676 50.1782 76.4583C50.9046 78.2489 51.9698 79.876 53.3129 81.2466C54.656 82.6173 56.2507 83.7045 58.006 84.4464C59.7612 85.1882 61.6426 85.57 63.5426 85.57C65.4425 85.57 67.3239 85.1882 69.0792 84.4464C70.8344 83.7045 72.4291 82.6173 73.7723 81.2466C75.1154 79.876 76.1806 78.2489 76.9069 76.4583C77.6333 74.6676 78.0066 72.7486 78.0056 70.8108V59.4066C78.0056 49.877 68.9439 48.454 63.5425 48.454V48.454Z" fill="#DCE1DE"/>
<path d="M54.6309 50.305C54.5439 50.305 54.4588 50.2784 54.3868 50.2286C54.3148 50.1788 54.2591 50.1081 54.2269 50.0257C53.9758 49.3846 53.8306 48.7056 53.7972 48.0161C53.8048 45.3871 54.8305 42.8676 56.651 41.0064C58.4715 39.1451 60.9393 38.0929 63.5169 38.0789H63.5668C66.1412 38.0914 68.6066 39.1399 70.427 40.9964C72.2475 42.8529 73.2758 45.3673 73.2883 47.9929C73.2658 48.6343 73.1318 49.2666 72.8926 49.8602C72.8482 49.9682 72.7637 50.0538 72.6576 50.0985C72.5516 50.1432 72.4324 50.1433 72.3263 50.0988C72.2202 50.0542 72.1356 49.9687 72.091 49.8608C72.0464 49.7529 72.0455 49.6315 72.0884 49.5229C72.287 49.0313 72.3989 48.5078 72.4192 47.9765C72.4038 45.5882 71.4655 43.3025 69.808 41.6155C68.1505 39.9285 65.9074 38.9764 63.5658 38.9657H63.518C61.1738 38.9776 58.9289 39.9328 57.2713 41.6236C55.6137 43.3144 54.6775 45.6041 54.6661 47.9951C54.6969 48.5791 54.8214 49.154 55.0345 49.697C55.0607 49.7642 55.0704 49.837 55.0627 49.909C55.055 49.981 55.0302 50.0499 54.9904 50.1099C54.9506 50.1698 54.8971 50.219 54.8344 50.253C54.7717 50.287 54.7019 50.3048 54.6309 50.305H54.6309Z" fill="#DCE1DE"/>
<path d="M107.7 47.8933H102.483C101.676 47.8933 100.902 47.5662 100.331 46.9841C99.76 46.402 99.4393 45.6124 99.4393 44.7892C99.4393 43.9659 99.76 43.1764 100.331 42.5942C100.902 42.0121 101.676 41.6851 102.483 41.6851H107.7C108.507 41.6851 109.281 42.0121 109.852 42.5942C110.423 43.1764 110.744 43.9659 110.744 44.7892C110.744 45.6124 110.423 46.402 109.852 46.9841C109.281 47.5662 108.507 47.8933 107.7 47.8933V47.8933Z" fill="#DCE1DE"/>
<path d="M143.352 60.9748H138.135C137.328 60.9748 136.554 60.6478 135.983 60.0657C135.412 59.4835 135.091 58.694 135.091 57.8707C135.091 57.0475 135.412 56.2579 135.983 55.6758C136.554 55.0936 137.328 54.7666 138.135 54.7666H143.352C144.16 54.7666 144.934 55.0936 145.504 55.6758C146.075 56.2579 146.396 57.0475 146.396 57.8707C146.396 58.694 146.075 59.4835 145.504 60.0657C144.934 60.6478 144.16 60.9748 143.352 60.9748V60.9748Z" fill="#DCE1DE"/>
<path d="M159.874 60.9748H154.657C153.85 60.9748 153.075 60.6478 152.505 60.0657C151.934 59.4835 151.613 58.694 151.613 57.8707C151.613 57.0475 151.934 56.2579 152.505 55.6758C153.075 55.0936 153.85 54.7666 154.657 54.7666H159.874C160.681 54.7666 161.455 55.0936 162.026 55.6758C162.597 56.2579 162.918 57.0475 162.918 57.8707C162.918 58.694 162.597 59.4835 162.026 60.0657C161.455 60.6478 160.681 60.9748 159.874 60.9748V60.9748Z" fill="#DCE1DE"/>
<path d="M176.396 60.9748H171.178C170.371 60.9748 169.597 60.6478 169.026 60.0657C168.456 59.4835 168.135 58.694 168.135 57.8707C168.135 57.0475 168.456 56.2579 169.026 55.6758C169.597 55.0936 170.371 54.7666 171.178 54.7666H176.396C177.203 54.7666 177.977 55.0936 178.548 55.6758C179.119 56.2579 179.439 57.0475 179.439 57.8707C179.439 58.694 179.119 59.4835 178.548 60.0657C177.977 60.6478 177.203 60.9748 176.396 60.9748V60.9748Z" fill="#DCE1DE"/>
<path d="M143.787 48.115H119.439C118.632 48.115 117.858 47.7879 117.287 47.2058C116.716 46.6237 116.396 45.8341 116.396 45.0109C116.396 44.1876 116.716 43.3981 117.287 42.8159C117.858 42.2338 118.632 41.9067 119.439 41.9067H143.787C144.594 41.9067 145.368 42.2338 145.939 42.8159C146.51 43.3981 146.831 44.1876 146.831 45.0109C146.831 45.8341 146.51 46.6237 145.939 47.2058C145.368 47.7879 144.594 48.115 143.787 48.115Z" fill="#DCE1DE"/>
<path d="M126.831 60.5315H102.483C101.676 60.5315 100.902 60.2044 100.331 59.6223C99.76 59.0402 99.4393 58.2506 99.4393 57.4274C99.4393 56.6041 99.76 55.8146 100.331 55.2324C100.902 54.6503 101.676 54.3232 102.483 54.3232H126.831C127.638 54.3232 128.412 54.6503 128.983 55.2324C129.553 55.8146 129.874 56.6041 129.874 57.4274C129.874 58.2506 129.553 59.0402 128.983 59.6223C128.412 60.2044 127.638 60.5315 126.831 60.5315Z" fill="#DCE1DE"/>
<path d="M174.657 48.115H155.961C155.154 48.115 154.38 47.7879 153.809 47.2058C153.238 46.6237 152.918 45.8341 152.918 45.0109C152.918 44.1876 153.238 43.3981 153.809 42.8159C154.38 42.2338 155.154 41.9067 155.961 41.9067H174.657C175.464 41.9067 176.238 42.2338 176.809 42.8159C177.38 43.3981 177.7 44.1876 177.7 45.0109C177.7 45.8341 177.38 46.6237 176.809 47.2058C176.238 47.7879 175.464 48.115 174.657 48.115Z" fill="#DCE1DE"/>
<path d="M107.7 74.0564H102.483C101.676 74.0564 100.902 73.7293 100.331 73.1472C99.76 72.5651 99.4393 71.7755 99.4393 70.9523C99.4393 70.129 99.76 69.3395 100.331 68.7573C100.902 68.1752 101.676 67.8481 102.483 67.8481H107.7C108.507 67.8481 109.281 68.1752 109.852 68.7573C110.423 69.3395 110.744 70.129 110.744 70.9523C110.744 71.7755 110.423 72.5651 109.852 73.1472C109.281 73.7293 108.507 74.0564 107.7 74.0564V74.0564Z" fill="#DCE1DE"/>
<path d="M143.787 74.2783H119.439C118.632 74.2783 117.858 73.9513 117.287 73.3691C116.716 72.787 116.396 71.9974 116.396 71.1742C116.396 70.3509 116.716 69.5614 117.287 68.9792C117.858 68.3971 118.632 68.0701 119.439 68.0701H143.787C144.594 68.0701 145.368 68.3971 145.939 68.9792C146.51 69.5614 146.831 70.3509 146.831 71.1742C146.831 71.9974 146.51 72.787 145.939 73.3691C145.368 73.9513 144.594 74.2783 143.787 74.2783V74.2783Z" fill="#DCE1DE"/>
<path d="M174.657 74.2783H155.961C155.154 74.2783 154.38 73.9513 153.809 73.3691C153.238 72.787 152.918 71.9974 152.918 71.1742C152.918 70.3509 153.238 69.5614 153.809 68.9792C154.38 68.3971 155.154 68.0701 155.961 68.0701H174.657C175.464 68.0701 176.238 68.3971 176.809 68.9792C177.38 69.5614 177.7 70.3509 177.7 71.1742C177.7 71.9974 177.38 72.787 176.809 73.3691C176.238 73.9513 175.464 74.2783 174.657 74.2783V74.2783Z" fill="#DCE1DE"/>
<path d="M166.396 84.6991C166.397 83.8761 166.718 83.0871 167.288 82.5052C167.859 81.9232 168.632 81.5959 169.439 81.595H174.657C175.464 81.595 176.238 81.922 176.809 82.5041C177.38 83.0863 177.7 83.8758 177.7 84.6991C177.7 85.5223 177.38 86.3119 176.809 86.894C176.238 87.4762 175.464 87.8032 174.657 87.8032H169.439C168.632 87.8023 167.859 87.4749 167.288 86.893C166.718 86.3111 166.397 85.5221 166.396 84.6991V84.6991Z" fill="#DCE1DE"/>
<path d="M130.309 84.921C130.31 84.098 130.631 83.309 131.201 82.7271C131.772 82.1452 132.545 81.8178 133.352 81.8169H157.7C158.507 81.8169 159.282 82.1439 159.852 82.7261C160.423 83.3082 160.744 84.0977 160.744 84.921C160.744 85.7443 160.423 86.5338 159.852 87.1159C159.282 87.6981 158.507 88.0251 157.7 88.0251H133.352C132.545 88.0242 131.772 87.6969 131.201 87.1149C130.631 86.533 130.31 85.744 130.309 84.921Z" fill="#DCE1DE"/>
<path d="M99.4393 84.921C99.4402 84.098 99.7612 83.309 100.332 82.7271C100.902 82.1452 101.676 81.8178 102.483 81.8169H121.178C121.986 81.8169 122.76 82.1439 123.331 82.7261C123.901 83.3082 124.222 84.0977 124.222 84.921C124.222 85.7443 123.901 86.5338 123.331 87.1159C122.76 87.6981 121.986 88.0251 121.178 88.0251H102.483C101.676 88.0242 100.902 87.6969 100.332 87.1149C99.7612 86.533 99.4402 85.744 99.4393 84.921Z" fill="#DCE1DE"/>
<path d="M26.5 139C26.18 139 25.88 138.933 25.6 138.8C25.3333 138.653 25.2 138.447 25.2 138.18V125.22C25.2 124.94 25.32 124.733 25.56 124.6C25.8 124.453 26.06 124.38 26.34 124.38H33.32C33.6133 124.38 33.82 124.5 33.94 124.74C34.0733 124.98 34.14 125.233 34.14 125.5C34.14 125.82 34.0667 126.093 33.92 126.32C33.7867 126.547 33.5867 126.66 33.32 126.66H27.8V130.66H30.86C31.1267 130.66 31.3267 130.767 31.46 130.98C31.6067 131.18 31.68 131.42 31.68 131.7C31.68 131.927 31.6133 132.153 31.48 132.38C31.36 132.593 31.1533 132.7 30.86 132.7H27.8V138.18C27.8 138.447 27.6667 138.653 27.4 138.8C27.1333 138.933 26.8333 139 26.5 139ZM35.1259 139.18C34.4193 139.18 33.8059 138.967 33.2859 138.54C32.7793 138.1 32.5259 137.427 32.5259 136.52C32.5259 135.76 32.7193 135.167 33.1059 134.74C33.5059 134.313 34.0526 134.013 34.7459 133.84C35.4526 133.667 36.2659 133.58 37.1859 133.58H38.0059V133.32C38.0059 133.027 37.9459 132.74 37.8259 132.46C37.7193 132.18 37.5393 131.947 37.2859 131.76C37.0459 131.573 36.6993 131.48 36.2459 131.48C35.7393 131.48 35.3459 131.533 35.0659 131.64C34.7993 131.733 34.5926 131.833 34.4459 131.94C34.2993 132.047 34.1393 132.1 33.9659 132.1C33.6859 132.1 33.4659 131.96 33.3059 131.68C33.1593 131.4 33.0859 131.113 33.0859 130.82C33.0859 130.54 33.2526 130.293 33.5859 130.08C33.9326 129.853 34.3526 129.68 34.8459 129.56C35.3393 129.44 35.8193 129.38 36.2859 129.38C37.3259 129.38 38.1593 129.567 38.7859 129.94C39.4126 130.313 39.8659 130.793 40.1459 131.38C40.4393 131.967 40.5859 132.6 40.5859 133.28V138.16C40.5859 138.4 40.4659 138.6 40.2259 138.76C39.9859 138.92 39.6859 139 39.3259 139C38.9926 139 38.7126 138.92 38.4859 138.76C38.2726 138.6 38.1659 138.4 38.1659 138.16V137.6C37.8059 138.013 37.3793 138.38 36.8859 138.7C36.4059 139.02 35.8193 139.18 35.1259 139.18ZM36.1659 137.26C36.4459 137.26 36.7259 137.167 37.0059 136.98C37.2859 136.793 37.5193 136.553 37.7059 136.26C37.9059 135.967 38.0059 135.66 38.0059 135.34V134.92H37.7059C37.2659 134.92 36.8459 134.947 36.4459 135C36.0459 135.053 35.7193 135.173 35.4659 135.36C35.2259 135.533 35.1059 135.807 35.1059 136.18C35.1059 136.553 35.2059 136.827 35.4059 137C35.6193 137.173 35.8726 137.26 36.1659 137.26ZM43.78 127.38C43.3933 127.38 43.06 127.253 42.78 127C42.5 126.733 42.36 126.44 42.36 126.12C42.36 125.773 42.5 125.48 42.78 125.24C43.06 124.987 43.3933 124.86 43.78 124.86C44.18 124.86 44.5133 124.987 44.78 125.24C45.0467 125.48 45.18 125.773 45.18 126.12C45.18 126.44 45.0467 126.733 44.78 127C44.5133 127.253 44.18 127.38 43.78 127.38ZM43.78 139C43.4067 139 43.1 138.913 42.86 138.74C42.62 138.567 42.5 138.373 42.5 138.16V130.3C42.5 130.06 42.62 129.867 42.86 129.72C43.1 129.573 43.4067 129.5 43.78 129.5C44.14 129.5 44.4467 129.573 44.7 129.72C44.9533 129.867 45.08 130.06 45.08 130.3V138.16C45.08 138.373 44.9533 138.567 44.7 138.74C44.4467 138.913 44.14 139 43.78 139ZM48.5108 139C48.1374 139 47.8308 138.913 47.5908 138.74C47.3508 138.567 47.2308 138.373 47.2308 138.16V124.76C47.2308 124.52 47.3508 124.327 47.5908 124.18C47.8308 124.033 48.1374 123.96 48.5108 123.96C48.8708 123.96 49.1774 124.033 49.4308 124.18C49.6841 124.327 49.8108 124.52 49.8108 124.76V138.16C49.8108 138.373 49.6841 138.567 49.4308 138.74C49.1774 138.913 48.8708 139 48.5108 139ZM56.4722 139.18C55.5255 139.18 54.6855 139.013 53.9522 138.68C53.2322 138.333 52.6655 137.853 52.2522 137.24C51.8389 136.613 51.6322 135.893 51.6322 135.08V133.38C51.6322 132.66 51.8255 132 52.2122 131.4C52.6122 130.787 53.1389 130.3 53.7922 129.94C54.4589 129.567 55.1989 129.38 56.0122 129.38C56.7589 129.38 57.4389 129.54 58.0522 129.86C58.6789 130.18 59.1855 130.62 59.5722 131.18C59.9589 131.74 60.1522 132.393 60.1522 133.14C60.1522 133.713 60.0589 134.127 59.8722 134.38C59.6855 134.62 59.4455 134.773 59.1522 134.84C58.8722 134.893 58.5789 134.92 58.2722 134.92H54.2122V135.22C54.2122 135.793 54.4255 136.26 54.8522 136.62C55.2922 136.967 55.8589 137.14 56.5522 137.14C56.9922 137.14 57.3589 137.073 57.6522 136.94C57.9455 136.807 58.1989 136.68 58.4122 136.56C58.6255 136.44 58.8255 136.38 59.0122 136.38C59.2122 136.38 59.3855 136.447 59.5322 136.58C59.6789 136.713 59.7922 136.873 59.8722 137.06C59.9522 137.233 59.9922 137.387 59.9922 137.52C59.9922 137.747 59.8455 137.993 59.5522 138.26C59.2722 138.513 58.8655 138.733 58.3322 138.92C57.8122 139.093 57.1922 139.18 56.4722 139.18ZM54.2122 133.4H57.1322C57.3589 133.4 57.5122 133.367 57.5922 133.3C57.6855 133.22 57.7322 133.073 57.7322 132.86C57.7322 132.553 57.6455 132.28 57.4722 132.04C57.3122 131.8 57.0989 131.613 56.8322 131.48C56.5789 131.347 56.2922 131.28 55.9722 131.28C55.6655 131.28 55.3789 131.347 55.1122 131.48C54.8455 131.6 54.6255 131.78 54.4522 132.02C54.2922 132.247 54.2122 132.52 54.2122 132.84V133.4ZM64.8592 139.18C64.2326 139.18 63.6526 138.987 63.1192 138.6C62.5859 138.213 62.1592 137.707 61.8392 137.08C61.5192 136.453 61.3592 135.787 61.3592 135.08V133.44C61.3592 132.693 61.5192 132.013 61.8392 131.4C62.1592 130.787 62.5859 130.3 63.1192 129.94C63.6526 129.567 64.2459 129.38 64.8992 129.38C65.5259 129.38 66.0592 129.54 66.4992 129.86C66.9392 130.167 67.2659 130.513 67.4792 130.9V124.76C67.4792 124.52 67.6059 124.327 67.8592 124.18C68.1126 124.033 68.4259 123.96 68.7992 123.96C69.1592 123.96 69.4592 124.033 69.6992 124.18C69.9392 124.327 70.0592 124.52 70.0592 124.76V138.16C70.0592 138.373 69.9392 138.567 69.6992 138.74C69.4592 138.913 69.1592 139 68.7992 139C68.4792 139 68.2059 138.913 67.9792 138.74C67.7526 138.567 67.6392 138.373 67.6392 138.16V137.6C67.4392 138.013 67.0792 138.38 66.5592 138.7C66.0526 139.02 65.4859 139.18 64.8592 139.18ZM65.6792 136.92C66.0259 136.92 66.3326 136.827 66.5992 136.64C66.8659 136.44 67.0792 136.227 67.2392 136C67.3992 135.76 67.4792 135.573 67.4792 135.44V133.44C67.4792 133.067 67.3859 132.747 67.1992 132.48C67.0259 132.213 66.7992 132.007 66.5192 131.86C66.2526 131.713 65.9792 131.64 65.6992 131.64C65.3792 131.64 65.0792 131.733 64.7992 131.92C64.5326 132.093 64.3192 132.313 64.1592 132.58C64.0126 132.847 63.9392 133.133 63.9392 133.44V135.08C63.9392 135.387 64.0126 135.68 64.1592 135.96C64.3192 136.24 64.5326 136.473 64.7992 136.66C65.0659 136.833 65.3592 136.92 65.6792 136.92ZM79.7342 139C78.5342 139 77.6142 138.74 76.9742 138.22C76.3476 137.7 76.0342 136.873 76.0342 135.74V126.06C76.0342 125.82 76.1742 125.627 76.4542 125.48C76.7342 125.333 77.0209 125.26 77.3142 125.26C77.6342 125.26 77.9276 125.333 78.1942 125.48C78.4742 125.627 78.6142 125.82 78.6142 126.06V129.5H80.9742C81.1876 129.5 81.3476 129.6 81.4542 129.8C81.5742 129.987 81.6342 130.2 81.6342 130.44C81.6342 130.68 81.5742 130.9 81.4542 131.1C81.3476 131.287 81.1876 131.38 80.9742 131.38H78.6142V135.74C78.6142 136.14 78.6942 136.42 78.8542 136.58C79.0276 136.74 79.3209 136.82 79.7342 136.82H80.5142C80.8876 136.82 81.1609 136.933 81.3342 137.16C81.5209 137.387 81.6142 137.633 81.6142 137.9C81.6142 138.18 81.5209 138.433 81.3342 138.66C81.1609 138.887 80.8876 139 80.5142 139H79.7342ZM86.792 139.18C86.0187 139.18 85.3054 138.993 84.652 138.62C83.9987 138.233 83.472 137.727 83.072 137.1C82.672 136.473 82.472 135.8 82.472 135.08V133.44C82.472 132.72 82.6654 132.053 83.052 131.44C83.4387 130.813 83.9587 130.313 84.612 129.94C85.2787 129.567 86.0054 129.38 86.792 129.38C87.5787 129.38 88.2987 129.567 88.952 129.94C89.6187 130.3 90.1454 130.787 90.532 131.4C90.932 132.013 91.132 132.693 91.132 133.44V135.08C91.132 135.787 90.932 136.453 90.532 137.08C90.132 137.707 89.5987 138.213 88.932 138.6C88.2787 138.987 87.5654 139.18 86.792 139.18ZM86.792 136.92C87.112 136.92 87.4054 136.833 87.672 136.66C87.9387 136.487 88.152 136.26 88.312 135.98C88.472 135.687 88.552 135.387 88.552 135.08V133.44C88.552 133.133 88.472 132.847 88.312 132.58C88.152 132.313 87.9387 132.093 87.672 131.92C87.4187 131.733 87.1254 131.64 86.792 131.64C86.472 131.64 86.1787 131.727 85.912 131.9C85.6454 132.073 85.432 132.3 85.272 132.58C85.1254 132.847 85.052 133.133 85.052 133.44V135.08C85.052 135.387 85.1254 135.687 85.272 135.98C85.432 136.26 85.6454 136.487 85.912 136.66C86.1787 136.833 86.472 136.92 86.792 136.92ZM98.2373 139C97.864 139 97.5573 138.913 97.3173 138.74C97.0773 138.567 96.9573 138.373 96.9573 138.16V124.76C96.9573 124.52 97.0773 124.327 97.3173 124.18C97.5573 124.033 97.864 123.96 98.2373 123.96C98.5973 123.96 98.904 124.033 99.1573 124.18C99.4107 124.327 99.5373 124.52 99.5373 124.76V138.16C99.5373 138.373 99.4107 138.567 99.1573 138.74C98.904 138.913 98.5973 139 98.2373 139ZM105.679 139.18C104.905 139.18 104.192 138.993 103.539 138.62C102.885 138.233 102.359 137.727 101.959 137.1C101.559 136.473 101.359 135.8 101.359 135.08V133.44C101.359 132.72 101.552 132.053 101.939 131.44C102.325 130.813 102.845 130.313 103.499 129.94C104.165 129.567 104.892 129.38 105.679 129.38C106.465 129.38 107.185 129.567 107.839 129.94C108.505 130.3 109.032 130.787 109.419 131.4C109.819 132.013 110.019 132.693 110.019 133.44V135.08C110.019 135.787 109.819 136.453 109.419 137.08C109.019 137.707 108.485 138.213 107.819 138.6C107.165 138.987 106.452 139.18 105.679 139.18ZM105.679 136.92C105.999 136.92 106.292 136.833 106.559 136.66C106.825 136.487 107.039 136.26 107.199 135.98C107.359 135.687 107.439 135.387 107.439 135.08V133.44C107.439 133.133 107.359 132.847 107.199 132.58C107.039 132.313 106.825 132.093 106.559 131.92C106.305 131.733 106.012 131.64 105.679 131.64C105.359 131.64 105.065 131.727 104.799 131.9C104.532 132.073 104.319 132.3 104.159 132.58C104.012 132.847 103.939 133.133 103.939 133.44V135.08C103.939 135.387 104.012 135.687 104.159 135.98C104.319 136.26 104.532 136.487 104.799 136.66C105.065 136.833 105.359 136.92 105.679 136.92ZM113.7 139.18C112.993 139.18 112.38 138.967 111.86 138.54C111.353 138.1 111.1 137.427 111.1 136.52C111.1 135.76 111.293 135.167 111.68 134.74C112.08 134.313 112.627 134.013 113.32 133.84C114.027 133.667 114.84 133.58 115.76 133.58H116.58V133.32C116.58 133.027 116.52 132.74 116.4 132.46C116.293 132.18 116.113 131.947 115.86 131.76C115.62 131.573 115.273 131.48 114.82 131.48C114.313 131.48 113.92 131.533 113.64 131.64C113.373 131.733 113.167 131.833 113.02 131.94C112.873 132.047 112.713 132.1 112.54 132.1C112.26 132.1 112.04 131.96 111.88 131.68C111.733 131.4 111.66 131.113 111.66 130.82C111.66 130.54 111.827 130.293 112.16 130.08C112.507 129.853 112.927 129.68 113.42 129.56C113.913 129.44 114.393 129.38 114.86 129.38C115.9 129.38 116.733 129.567 117.36 129.94C117.987 130.313 118.44 130.793 118.72 131.38C119.013 131.967 119.16 132.6 119.16 133.28V138.16C119.16 138.4 119.04 138.6 118.8 138.76C118.56 138.92 118.26 139 117.9 139C117.567 139 117.287 138.92 117.06 138.76C116.847 138.6 116.74 138.4 116.74 138.16V137.6C116.38 138.013 115.953 138.38 115.46 138.7C114.98 139.02 114.393 139.18 113.7 139.18ZM114.74 137.26C115.02 137.26 115.3 137.167 115.58 136.98C115.86 136.793 116.093 136.553 116.28 136.26C116.48 135.967 116.58 135.66 116.58 135.34V134.92H116.28C115.84 134.92 115.42 134.947 115.02 135C114.62 135.053 114.293 135.173 114.04 135.36C113.8 135.533 113.68 135.807 113.68 136.18C113.68 136.553 113.78 136.827 113.98 137C114.193 137.173 114.447 137.26 114.74 137.26ZM124.234 139.18C123.608 139.18 123.028 138.987 122.494 138.6C121.961 138.213 121.534 137.707 121.214 137.08C120.894 136.453 120.734 135.787 120.734 135.08V133.44C120.734 132.693 120.894 132.013 121.214 131.4C121.534 130.787 121.961 130.3 122.494 129.94C123.028 129.567 123.621 129.38 124.274 129.38C124.901 129.38 125.434 129.54 125.874 129.86C126.314 130.167 126.641 130.513 126.854 130.9V124.76C126.854 124.52 126.981 124.327 127.234 124.18C127.488 124.033 127.801 123.96 128.174 123.96C128.534 123.96 128.834 124.033 129.074 124.18C129.314 124.327 129.434 124.52 129.434 124.76V138.16C129.434 138.373 129.314 138.567 129.074 138.74C128.834 138.913 128.534 139 128.174 139C127.854 139 127.581 138.913 127.354 138.74C127.128 138.567 127.014 138.373 127.014 138.16V137.6C126.814 138.013 126.454 138.38 125.934 138.7C125.428 139.02 124.861 139.18 124.234 139.18ZM125.054 136.92C125.401 136.92 125.708 136.827 125.974 136.64C126.241 136.44 126.454 136.227 126.614 136C126.774 135.76 126.854 135.573 126.854 135.44V133.44C126.854 133.067 126.761 132.747 126.574 132.48C126.401 132.213 126.174 132.007 125.894 131.86C125.628 131.713 125.354 131.64 125.074 131.64C124.754 131.64 124.454 131.733 124.174 131.92C123.908 132.093 123.694 132.313 123.534 132.58C123.388 132.847 123.314 133.133 123.314 133.44V135.08C123.314 135.387 123.388 135.68 123.534 135.96C123.694 136.24 123.908 136.473 124.174 136.66C124.441 136.833 124.734 136.92 125.054 136.92ZM136.729 127.38C136.343 127.38 136.009 127.253 135.729 127C135.449 126.733 135.309 126.44 135.309 126.12C135.309 125.773 135.449 125.48 135.729 125.24C136.009 124.987 136.343 124.86 136.729 124.86C137.129 124.86 137.463 124.987 137.729 125.24C137.996 125.48 138.129 125.773 138.129 126.12C138.129 126.44 137.996 126.733 137.729 127C137.463 127.253 137.129 127.38 136.729 127.38ZM136.729 139C136.356 139 136.049 138.913 135.809 138.74C135.569 138.567 135.449 138.373 135.449 138.16V130.3C135.449 130.06 135.569 129.867 135.809 129.72C136.049 129.573 136.356 129.5 136.729 129.5C137.089 129.5 137.396 129.573 137.649 129.72C137.903 129.867 138.029 130.06 138.029 130.3V138.16C138.029 138.373 137.903 138.567 137.649 138.74C137.396 138.913 137.089 139 136.729 139ZM141.28 139C140.907 139 140.6 138.913 140.36 138.74C140.12 138.567 140 138.373 140 138.16V130.3C140 130.06 140.12 129.867 140.36 129.72C140.6 129.573 140.907 129.5 141.28 129.5C141.6 129.5 141.867 129.573 142.08 129.72C142.307 129.867 142.42 130.06 142.42 130.3V130.9C142.647 130.513 142.98 130.167 143.42 129.86C143.86 129.54 144.413 129.38 145.08 129.38C145.653 129.38 146.16 129.567 146.6 129.94C147.04 130.313 147.367 130.793 147.58 131.38C147.927 130.7 148.367 130.2 148.9 129.88C149.447 129.547 150.007 129.38 150.58 129.38C151.193 129.38 151.767 129.54 152.3 129.86C152.847 130.167 153.287 130.627 153.62 131.24C153.967 131.84 154.14 132.573 154.14 133.44V138.16C154.14 138.373 154.013 138.567 153.76 138.74C153.507 138.913 153.2 139 152.84 139C152.493 139 152.193 138.913 151.94 138.74C151.687 138.567 151.56 138.373 151.56 138.16V133.44C151.56 133.04 151.48 132.707 151.32 132.44C151.173 132.173 150.973 131.973 150.72 131.84C150.467 131.693 150.207 131.62 149.94 131.62C149.687 131.62 149.44 131.693 149.2 131.84C148.96 131.973 148.76 132.173 148.6 132.44C148.44 132.707 148.36 133.033 148.36 133.42V138.18C148.36 138.473 148.22 138.687 147.94 138.82C147.673 138.94 147.38 139 147.06 139C146.767 139 146.48 138.94 146.2 138.82C145.92 138.687 145.78 138.473 145.78 138.18V133.44C145.78 133.067 145.7 132.747 145.54 132.48C145.393 132.213 145.193 132.007 144.94 131.86C144.7 131.713 144.44 131.64 144.16 131.64C143.893 131.64 143.64 131.707 143.4 131.84C143.16 131.973 142.96 132.173 142.8 132.44C142.653 132.707 142.58 133.04 142.58 133.44V138.16C142.58 138.373 142.453 138.567 142.2 138.74C141.947 138.913 141.64 139 141.28 139ZM158.095 139.18C157.388 139.18 156.775 138.967 156.255 138.54C155.748 138.1 155.495 137.427 155.495 136.52C155.495 135.76 155.688 135.167 156.075 134.74C156.475 134.313 157.021 134.013 157.715 133.84C158.421 133.667 159.235 133.58 160.155 133.58H160.975V133.32C160.975 133.027 160.915 132.74 160.795 132.46C160.688 132.18 160.508 131.947 160.255 131.76C160.015 131.573 159.668 131.48 159.215 131.48C158.708 131.48 158.315 131.533 158.035 131.64C157.768 131.733 157.561 131.833 157.415 131.94C157.268 132.047 157.108 132.1 156.935 132.1C156.655 132.1 156.435 131.96 156.275 131.68C156.128 131.4 156.055 131.113 156.055 130.82C156.055 130.54 156.221 130.293 156.555 130.08C156.901 129.853 157.321 129.68 157.815 129.56C158.308 129.44 158.788 129.38 159.255 129.38C160.295 129.38 161.128 129.567 161.755 129.94C162.381 130.313 162.835 130.793 163.115 131.38C163.408 131.967 163.555 132.6 163.555 133.28V138.16C163.555 138.4 163.435 138.6 163.195 138.76C162.955 138.92 162.655 139 162.295 139C161.961 139 161.681 138.92 161.455 138.76C161.241 138.6 161.135 138.4 161.135 138.16V137.6C160.775 138.013 160.348 138.38 159.855 138.7C159.375 139.02 158.788 139.18 158.095 139.18ZM159.135 137.26C159.415 137.26 159.695 137.167 159.975 136.98C160.255 136.793 160.488 136.553 160.675 136.26C160.875 135.967 160.975 135.66 160.975 135.34V134.92H160.675C160.235 134.92 159.815 134.947 159.415 135C159.015 135.053 158.688 135.173 158.435 135.36C158.195 135.533 158.075 135.807 158.075 136.18C158.075 136.553 158.175 136.827 158.375 137C158.588 137.173 158.841 137.26 159.135 137.26ZM169.209 143.42C168.422 143.42 167.689 143.307 167.009 143.08C166.342 142.867 165.802 142.547 165.389 142.12C164.989 141.693 164.789 141.187 164.789 140.6C164.789 140.093 164.929 139.66 165.209 139.3C165.489 138.953 165.835 138.68 166.249 138.48C165.995 138.36 165.789 138.2 165.629 138C165.482 137.787 165.409 137.52 165.409 137.2C165.409 136.827 165.502 136.527 165.689 136.3C165.889 136.06 166.135 135.84 166.429 135.64C166.029 135.333 165.715 134.967 165.489 134.54C165.275 134.1 165.169 133.62 165.169 133.1V132.68C165.169 132.027 165.329 131.453 165.649 130.96C165.982 130.467 166.442 130.08 167.029 129.8C167.629 129.52 168.315 129.38 169.089 129.38C169.529 129.38 169.942 129.433 170.329 129.54C170.715 129.633 171.062 129.773 171.369 129.96C171.595 129.427 171.809 129.067 172.009 128.88C172.209 128.693 172.402 128.6 172.589 128.6C172.909 128.6 173.155 128.693 173.329 128.88C173.515 129.067 173.609 129.24 173.609 129.4C173.609 129.52 173.575 129.627 173.509 129.72C173.455 129.813 173.382 129.893 173.289 129.96C173.155 130.04 173.002 130.14 172.829 130.26C172.655 130.367 172.495 130.52 172.349 130.72C172.589 130.987 172.762 131.287 172.869 131.62C172.989 131.94 173.049 132.293 173.049 132.68V133.1C173.049 133.74 172.882 134.313 172.549 134.82C172.215 135.313 171.749 135.707 171.149 136C170.549 136.293 169.862 136.44 169.089 136.44C168.609 136.44 168.175 136.38 167.789 136.26C167.722 136.313 167.662 136.373 167.609 136.44C167.569 136.507 167.549 136.58 167.549 136.66C167.549 136.887 167.695 137.047 167.989 137.14C168.282 137.233 168.655 137.307 169.109 137.36C169.562 137.413 170.042 137.487 170.549 137.58C171.069 137.66 171.555 137.793 172.009 137.98C172.462 138.167 172.835 138.447 173.129 138.82C173.422 139.18 173.569 139.667 173.569 140.28C173.569 141.027 173.355 141.627 172.929 142.08C172.515 142.547 171.975 142.887 171.309 143.1C170.655 143.313 169.955 143.42 169.209 143.42ZM169.169 141.76C169.689 141.76 170.129 141.633 170.489 141.38C170.862 141.127 171.049 140.787 171.049 140.36C171.049 140.08 170.969 139.853 170.809 139.68C170.649 139.507 170.429 139.373 170.149 139.28C169.882 139.2 169.589 139.133 169.269 139.08C168.949 139.04 168.629 139 168.309 138.96C167.989 139.107 167.729 139.293 167.529 139.52C167.329 139.747 167.229 140.02 167.229 140.34C167.229 140.78 167.415 141.127 167.789 141.38C168.175 141.633 168.635 141.76 169.169 141.76ZM169.129 134.88C169.569 134.88 169.915 134.713 170.169 134.38C170.422 134.047 170.549 133.62 170.549 133.1V132.68C170.549 132.187 170.422 131.773 170.169 131.44C169.929 131.107 169.575 130.94 169.109 130.94C168.655 130.94 168.302 131.107 168.049 131.44C167.809 131.773 167.689 132.187 167.689 132.68V133.08C167.689 133.587 167.809 134.013 168.049 134.36C168.302 134.707 168.662 134.88 169.129 134.88ZM179.304 139.18C178.358 139.18 177.518 139.013 176.784 138.68C176.064 138.333 175.498 137.853 175.084 137.24C174.671 136.613 174.464 135.893 174.464 135.08V133.38C174.464 132.66 174.658 132 175.044 131.4C175.444 130.787 175.971 130.3 176.624 129.94C177.291 129.567 178.031 129.38 178.844 129.38C179.591 129.38 180.271 129.54 180.884 129.86C181.511 130.18 182.018 130.62 182.404 131.18C182.791 131.74 182.984 132.393 182.984 133.14C182.984 133.713 182.891 134.127 182.704 134.38C182.518 134.62 182.278 134.773 181.984 134.84C181.704 134.893 181.411 134.92 181.104 134.92H177.044V135.22C177.044 135.793 177.258 136.26 177.684 136.62C178.124 136.967 178.691 137.14 179.384 137.14C179.824 137.14 180.191 137.073 180.484 136.94C180.778 136.807 181.031 136.68 181.244 136.56C181.458 136.44 181.658 136.38 181.844 136.38C182.044 136.38 182.218 136.447 182.364 136.58C182.511 136.713 182.624 136.873 182.704 137.06C182.784 137.233 182.824 137.387 182.824 137.52C182.824 137.747 182.678 137.993 182.384 138.26C182.104 138.513 181.698 138.733 181.164 138.92C180.644 139.093 180.024 139.18 179.304 139.18ZM177.044 133.4H179.964C180.191 133.4 180.344 133.367 180.424 133.3C180.518 133.22 180.564 133.073 180.564 132.86C180.564 132.553 180.478 132.28 180.304 132.04C180.144 131.8 179.931 131.613 179.664 131.48C179.411 131.347 179.124 131.28 178.804 131.28C178.498 131.28 178.211 131.347 177.944 131.48C177.678 131.6 177.458 131.78 177.284 132.02C177.124 132.247 177.044 132.52 177.044 132.84V133.4Z" fill="#DCE1DE"/>
</g>
<defs>
<clipPath id="clip0_1258_4207">
<rect width="300" height="199" fill="white"/>
</clipPath>
</defs>
</svg>
