<svg width="544" height="122" viewBox="0 0 544 122" fill="none" xmlns="http://www.w3.org/2000/svg">
<rect width="56" height="56" rx="10" fill="#BFD9C2"/>
<g filter="url(#filter0_d_411_348)">
<path d="M19 43V13.8H27.68C29.6533 13.8 31.36 14.1733 32.8 14.92C34.2667 15.6667 35.4 16.72 36.2 18.08C37 19.44 37.4 21.0533 37.4 22.92V33.84C37.4 35.68 37 37.2933 36.2 38.68C35.4 40.04 34.2667 41.1067 32.8 41.88C31.36 42.6267 29.6533 43 27.68 43H19ZM24 38.4H27.68C29.12 38.4 30.2667 38 31.12 37.2C31.9733 36.3733 32.4 35.2533 32.4 33.84V22.92C32.4 21.5333 31.9733 20.44 31.12 19.64C30.2667 18.8133 29.12 18.4 27.68 18.4H24V38.4Z" fill="#184D4E"/>
</g>
<rect x="61" width="56" height="56" rx="10" fill="#BFD9C2"/>
<g filter="url(#filter1_d_411_348)">
<path d="M78.4 43L85.76 13.8H92.2L99.6 43H94.48L92.88 35.92H85.12L83.52 43H78.4ZM86.04 31.84H91.96L90.2 24C89.9067 22.6933 89.6533 21.52 89.44 20.48C89.2267 19.4133 89.08 18.64 89 18.16C88.92 18.64 88.7733 19.4133 88.56 20.48C88.3733 21.52 88.12 22.68 87.8 23.96L86.04 31.84Z" fill="#184D4E"/>
</g>
<rect x="122" width="56" height="56" rx="10" fill="#BFD9C2"/>
<g filter="url(#filter2_d_411_348)">
<path d="M141.6 43V38.6H147.48V18.2H141.6V13.8H158.4V18.2H152.52V38.6H158.4V43H141.6Z" fill="#184D4E"/>
</g>
<rect x="183" width="56" height="56" rx="10" fill="#BFD9C2"/>
<g filter="url(#filter3_d_411_348)">
<path d="M203.12 43V13.8H208.12V38.36H220.52V43H203.12Z" fill="#184D4E"/>
</g>
<rect x="244" width="56" height="56" rx="10" fill="#BFD9C2"/>
<g filter="url(#filter4_d_411_348)">
<path d="M269.48 43V32.4L260.92 13.8H266.16L270.72 23.92C271.067 24.72 271.36 25.5067 271.6 26.28C271.84 27.0533 272 27.6533 272.08 28.08C272.187 27.6533 272.347 27.0533 272.56 26.28C272.8 25.5067 273.093 24.72 273.44 23.92L277.88 13.8H283.08L274.52 32.4V43H269.48Z" fill="#184D4E"/>
</g>
<rect x="305" width="56" height="56" rx="10" fill="#184D4E"/>
<g filter="url(#filter5_d_411_348)">
<path d="M332.524 42.4149C325.334 30.4842 324 29.2597 324 24.875C324 18.8689 328.253 14 333.5 14C338.747 14 343 18.8689 343 24.875C343 29.2597 341.666 30.4842 334.476 42.4149C334.005 43.1951 332.995 43.195 332.524 42.4149ZM333.5 29.4062C335.686 29.4062 337.458 27.3775 337.458 24.875C337.458 22.3724 335.686 20.3437 333.5 20.3437C331.314 20.3437 329.542 22.3724 329.542 24.875C329.542 27.3775 331.314 29.4062 333.5 29.4062Z" fill="#BFD9C2"/>
</g>
<rect x="366" width="56" height="56" rx="10" fill="#BFD9C2"/>
<g filter="url(#filter6_d_411_348)">
<path d="M394.16 43.4C392.293 43.4 390.653 43.0533 389.24 42.36C387.853 41.64 386.773 40.64 386 39.36C385.253 38.0533 384.88 36.52 384.88 34.76V22.04C384.88 20.2533 385.253 18.72 386 17.44C386.773 16.16 387.853 15.1733 389.24 14.48C390.653 13.76 392.293 13.4 394.16 13.4C396.053 13.4 397.68 13.76 399.04 14.48C400.427 15.1733 401.507 16.16 402.28 17.44C403.053 18.72 403.44 20.2533 403.44 22.04H398.4C398.4 20.6533 398.027 19.6 397.28 18.88C396.56 18.16 395.52 17.8 394.16 17.8C392.8 17.8 391.747 18.16 391 18.88C390.253 19.6 389.88 20.64 389.88 22V34.76C389.88 36.12 390.253 37.1733 391 37.92C391.747 38.6667 392.8 39.04 394.16 39.04C395.52 39.04 396.56 38.6667 397.28 37.92C398.027 37.1733 398.4 36.12 398.4 34.76V31.8H393.44V27.48H403.44V34.76C403.44 36.52 403.053 38.0533 402.28 39.36C401.507 40.64 400.427 41.64 399.04 42.36C397.68 43.0533 396.053 43.4 394.16 43.4Z" fill="#184D4E"/>
</g>
<rect x="427" width="56" height="56" rx="10" fill="#BFD9C2"/>
<g filter="url(#filter7_d_411_348)">
<path d="M446.52 43V13.8H464.04V18.16H451.44V25.76H462.64V30.08H451.44V38.64H464.04V43H446.52Z" fill="#184D4E"/>
</g>
<rect x="488" width="56" height="56" rx="10" fill="#BFD9C2"/>
<g filter="url(#filter8_d_411_348)">
<path d="M516 43.4C514.133 43.4 512.507 43.0533 511.12 42.36C509.76 41.64 508.707 40.64 507.96 39.36C507.24 38.0533 506.88 36.52 506.88 34.76V22.04C506.88 20.28 507.24 18.76 507.96 17.48C508.707 16.1733 509.76 15.1733 511.12 14.48C512.507 13.76 514.133 13.4 516 13.4C517.893 13.4 519.52 13.76 520.88 14.48C522.24 15.1733 523.28 16.1733 524 17.48C524.747 18.76 525.12 20.2667 525.12 22V34.76C525.12 36.52 524.747 38.0533 524 39.36C523.28 40.64 522.24 41.64 520.88 42.36C519.52 43.0533 517.893 43.4 516 43.4ZM516 39C517.36 39 518.387 38.64 519.08 37.92C519.773 37.1733 520.12 36.12 520.12 34.76V22.04C520.12 20.6533 519.773 19.6 519.08 18.88C518.387 18.16 517.36 17.8 516 17.8C514.64 17.8 513.613 18.16 512.92 18.88C512.227 19.6 511.88 20.6533 511.88 22.04V34.76C511.88 36.12 512.227 37.1733 512.92 37.92C513.64 38.64 514.667 39 516 39Z" fill="#184D4E"/>
</g>
<rect y="66" width="56" height="56" rx="10" fill="#184D4E"/>
<g filter="url(#filter9_d_411_348)">
<path d="M28.16 109.4C26.2933 109.4 24.6533 109.053 23.24 108.36C21.8533 107.64 20.7733 106.64 20 105.36C19.2533 104.053 18.88 102.52 18.88 100.76V88.04C18.88 86.2533 19.2533 84.72 20 83.44C20.7733 82.16 21.8533 81.1733 23.24 80.48C24.6533 79.76 26.2933 79.4 28.16 79.4C30.0533 79.4 31.68 79.76 33.04 80.48C34.4267 81.1733 35.5067 82.16 36.28 83.44C37.0533 84.72 37.44 86.2533 37.44 88.04H32.4C32.4 86.6533 32.0267 85.6 31.28 84.88C30.56 84.16 29.52 83.8 28.16 83.8C26.8 83.8 25.7467 84.16 25 84.88C24.2533 85.6 23.88 86.64 23.88 88V100.76C23.88 102.12 24.2533 103.173 25 103.92C25.7467 104.64 26.8 105 28.16 105C29.52 105 30.56 104.64 31.28 103.92C32.0267 103.173 32.4 102.12 32.4 100.76H37.44C37.44 102.493 37.0533 104.013 36.28 105.32C35.5067 106.627 34.4267 107.64 33.04 108.36C31.68 109.053 30.0533 109.4 28.16 109.4Z" fill="#BFD9C2"/>
</g>
<rect x="61" y="66" width="56" height="56" rx="10" fill="#184D4E"/>
<g filter="url(#filter10_d_411_348)">
<path d="M80.08 109V79.8H85.08V91.52H92.92V79.8H97.92V109H92.92V96.16H85.08V109H80.08Z" fill="#BFD9C2"/>
</g>
<rect x="122" y="66" width="56" height="56" rx="10" fill="#184D4E"/>
<g filter="url(#filter11_d_411_348)">
<path d="M139.4 109L146.76 79.8H153.2L160.6 109H155.48L153.88 101.92H146.12L144.52 109H139.4ZM147.04 97.84H152.96L151.2 90C150.907 88.6933 150.653 87.52 150.44 86.48C150.227 85.4133 150.08 84.64 150 84.16C149.92 84.64 149.773 85.4133 149.56 86.48C149.373 87.52 149.12 88.68 148.8 89.96L147.04 97.84Z" fill="#BFD9C2"/>
</g>
<rect x="183" y="66" width="56" height="56" rx="10" fill="#184D4E"/>
<g filter="url(#filter12_d_411_348)">
<path d="M203.12 109V79.8H208.12V104.36H220.52V109H203.12Z" fill="#BFD9C2"/>
</g>
<rect x="244" y="66" width="56" height="56" rx="10" fill="#184D4E"/>
<g filter="url(#filter13_d_411_348)">
<path d="M264.12 109V79.8H269.12V104.36H281.52V109H264.12Z" fill="#BFD9C2"/>
</g>
<rect x="305" y="66" width="56" height="56" rx="10" fill="#184D4E"/>
<g filter="url(#filter14_d_411_348)">
<path d="M324.52 109V79.8H342.04V84.16H329.44V91.76H340.64V96.08H329.44V104.64H342.04V109H324.52Z" fill="#BFD9C2"/>
</g>
<rect x="366" y="66" width="56" height="56" rx="10" fill="#184D4E"/>
<g filter="url(#filter15_d_411_348)">
<path d="M384.88 109V79.8H391L399.12 103.4C399.04 102.547 398.947 101.547 398.84 100.4C398.76 99.2267 398.693 98.04 398.64 96.84C398.587 95.6133 398.56 94.5467 398.56 93.64V79.8H403.12V109H397L388.96 85.4C389.013 86.1733 389.08 87.1067 389.16 88.2C389.24 89.2933 389.307 90.4133 389.36 91.56C389.413 92.7067 389.44 93.76 389.44 94.72V109H384.88Z" fill="#BFD9C2"/>
</g>
<rect x="427" y="66" width="56" height="56" rx="10" fill="#184D4E"/>
<g filter="url(#filter16_d_411_348)">
<path d="M455.16 109.4C453.293 109.4 451.653 109.053 450.24 108.36C448.853 107.64 447.773 106.64 447 105.36C446.253 104.053 445.88 102.52 445.88 100.76V88.04C445.88 86.2533 446.253 84.72 447 83.44C447.773 82.16 448.853 81.1733 450.24 80.48C451.653 79.76 453.293 79.4 455.16 79.4C457.053 79.4 458.68 79.76 460.04 80.48C461.427 81.1733 462.507 82.16 463.28 83.44C464.053 84.72 464.44 86.2533 464.44 88.04H459.4C459.4 86.6533 459.027 85.6 458.28 84.88C457.56 84.16 456.52 83.8 455.16 83.8C453.8 83.8 452.747 84.16 452 84.88C451.253 85.6 450.88 86.64 450.88 88V100.76C450.88 102.12 451.253 103.173 452 103.92C452.747 104.667 453.8 105.04 455.16 105.04C456.52 105.04 457.56 104.667 458.28 103.92C459.027 103.173 459.4 102.12 459.4 100.76V97.8H454.44V93.48H464.44V100.76C464.44 102.52 464.053 104.053 463.28 105.36C462.507 106.64 461.427 107.64 460.04 108.36C458.68 109.053 457.053 109.4 455.16 109.4Z" fill="#BFD9C2"/>
</g>
<rect x="488" y="66" width="56" height="56" rx="10" fill="#184D4E"/>
<g filter="url(#filter17_d_411_348)">
<path d="M507.52 109V79.8H525.04V84.16H512.44V91.76H523.64V96.08H512.44V104.64H525.04V109H507.52Z" fill="#BFD9C2"/>
</g>
<defs>
<filter id="filter0_d_411_348" x="12" y="2" width="32" height="61" filterUnits="userSpaceOnUse" color-interpolation-filters="sRGB">
<feFlood flood-opacity="0" result="BackgroundImageFix"/>
<feColorMatrix in="SourceAlpha" type="matrix" values="0 0 0 0 0 0 0 0 0 0 0 0 0 0 0 0 0 0 127 0" result="hardAlpha"/>
<feOffset dy="4"/>
<feGaussianBlur stdDeviation="2"/>
<feComposite in2="hardAlpha" operator="out"/>
<feColorMatrix type="matrix" values="0 0 0 0 0 0 0 0 0 0 0 0 0 0 0 0 0 0 0.5 0"/>
<feBlend mode="normal" in2="BackgroundImageFix" result="effect1_dropShadow_411_348"/>
<feBlend mode="normal" in="SourceGraphic" in2="effect1_dropShadow_411_348" result="shape"/>
</filter>
<filter id="filter1_d_411_348" x="73" y="2" width="32" height="61" filterUnits="userSpaceOnUse" color-interpolation-filters="sRGB">
<feFlood flood-opacity="0" result="BackgroundImageFix"/>
<feColorMatrix in="SourceAlpha" type="matrix" values="0 0 0 0 0 0 0 0 0 0 0 0 0 0 0 0 0 0 127 0" result="hardAlpha"/>
<feOffset dy="4"/>
<feGaussianBlur stdDeviation="2"/>
<feComposite in2="hardAlpha" operator="out"/>
<feColorMatrix type="matrix" values="0 0 0 0 0 0 0 0 0 0 0 0 0 0 0 0 0 0 0.5 0"/>
<feBlend mode="normal" in2="BackgroundImageFix" result="effect1_dropShadow_411_348"/>
<feBlend mode="normal" in="SourceGraphic" in2="effect1_dropShadow_411_348" result="shape"/>
</filter>
<filter id="filter2_d_411_348" x="134" y="2" width="32" height="61" filterUnits="userSpaceOnUse" color-interpolation-filters="sRGB">
<feFlood flood-opacity="0" result="BackgroundImageFix"/>
<feColorMatrix in="SourceAlpha" type="matrix" values="0 0 0 0 0 0 0 0 0 0 0 0 0 0 0 0 0 0 127 0" result="hardAlpha"/>
<feOffset dy="4"/>
<feGaussianBlur stdDeviation="2"/>
<feComposite in2="hardAlpha" operator="out"/>
<feColorMatrix type="matrix" values="0 0 0 0 0 0 0 0 0 0 0 0 0 0 0 0 0 0 0.5 0"/>
<feBlend mode="normal" in2="BackgroundImageFix" result="effect1_dropShadow_411_348"/>
<feBlend mode="normal" in="SourceGraphic" in2="effect1_dropShadow_411_348" result="shape"/>
</filter>
<filter id="filter3_d_411_348" x="195" y="2" width="32" height="61" filterUnits="userSpaceOnUse" color-interpolation-filters="sRGB">
<feFlood flood-opacity="0" result="BackgroundImageFix"/>
<feColorMatrix in="SourceAlpha" type="matrix" values="0 0 0 0 0 0 0 0 0 0 0 0 0 0 0 0 0 0 127 0" result="hardAlpha"/>
<feOffset dy="4"/>
<feGaussianBlur stdDeviation="2"/>
<feComposite in2="hardAlpha" operator="out"/>
<feColorMatrix type="matrix" values="0 0 0 0 0 0 0 0 0 0 0 0 0 0 0 0 0 0 0.5 0"/>
<feBlend mode="normal" in2="BackgroundImageFix" result="effect1_dropShadow_411_348"/>
<feBlend mode="normal" in="SourceGraphic" in2="effect1_dropShadow_411_348" result="shape"/>
</filter>
<filter id="filter4_d_411_348" x="256" y="2" width="32" height="61" filterUnits="userSpaceOnUse" color-interpolation-filters="sRGB">
<feFlood flood-opacity="0" result="BackgroundImageFix"/>
<feColorMatrix in="SourceAlpha" type="matrix" values="0 0 0 0 0 0 0 0 0 0 0 0 0 0 0 0 0 0 127 0" result="hardAlpha"/>
<feOffset dy="4"/>
<feGaussianBlur stdDeviation="2"/>
<feComposite in2="hardAlpha" operator="out"/>
<feColorMatrix type="matrix" values="0 0 0 0 0 0 0 0 0 0 0 0 0 0 0 0 0 0 0.5 0"/>
<feBlend mode="normal" in2="BackgroundImageFix" result="effect1_dropShadow_411_348"/>
<feBlend mode="normal" in="SourceGraphic" in2="effect1_dropShadow_411_348" result="shape"/>
</filter>
<filter id="filter5_d_411_348" x="320" y="14" width="27" height="37" filterUnits="userSpaceOnUse" color-interpolation-filters="sRGB">
<feFlood flood-opacity="0" result="BackgroundImageFix"/>
<feColorMatrix in="SourceAlpha" type="matrix" values="0 0 0 0 0 0 0 0 0 0 0 0 0 0 0 0 0 0 127 0" result="hardAlpha"/>
<feOffset dy="4"/>
<feGaussianBlur stdDeviation="2"/>
<feComposite in2="hardAlpha" operator="out"/>
<feColorMatrix type="matrix" values="0 0 0 0 0 0 0 0 0 0 0 0 0 0 0 0 0 0 0.5 0"/>
<feBlend mode="normal" in2="BackgroundImageFix" result="effect1_dropShadow_411_348"/>
<feBlend mode="normal" in="SourceGraphic" in2="effect1_dropShadow_411_348" result="shape"/>
</filter>
<filter id="filter6_d_411_348" x="378" y="2" width="32" height="61" filterUnits="userSpaceOnUse" color-interpolation-filters="sRGB">
<feFlood flood-opacity="0" result="BackgroundImageFix"/>
<feColorMatrix in="SourceAlpha" type="matrix" values="0 0 0 0 0 0 0 0 0 0 0 0 0 0 0 0 0 0 127 0" result="hardAlpha"/>
<feOffset dy="4"/>
<feGaussianBlur stdDeviation="2"/>
<feComposite in2="hardAlpha" operator="out"/>
<feColorMatrix type="matrix" values="0 0 0 0 0 0 0 0 0 0 0 0 0 0 0 0 0 0 0.5 0"/>
<feBlend mode="normal" in2="BackgroundImageFix" result="effect1_dropShadow_411_348"/>
<feBlend mode="normal" in="SourceGraphic" in2="effect1_dropShadow_411_348" result="shape"/>
</filter>
<filter id="filter7_d_411_348" x="439" y="2" width="32" height="61" filterUnits="userSpaceOnUse" color-interpolation-filters="sRGB">
<feFlood flood-opacity="0" result="BackgroundImageFix"/>
<feColorMatrix in="SourceAlpha" type="matrix" values="0 0 0 0 0 0 0 0 0 0 0 0 0 0 0 0 0 0 127 0" result="hardAlpha"/>
<feOffset dy="4"/>
<feGaussianBlur stdDeviation="2"/>
<feComposite in2="hardAlpha" operator="out"/>
<feColorMatrix type="matrix" values="0 0 0 0 0 0 0 0 0 0 0 0 0 0 0 0 0 0 0.5 0"/>
<feBlend mode="normal" in2="BackgroundImageFix" result="effect1_dropShadow_411_348"/>
<feBlend mode="normal" in="SourceGraphic" in2="effect1_dropShadow_411_348" result="shape"/>
</filter>
<filter id="filter8_d_411_348" x="500" y="2" width="32" height="61" filterUnits="userSpaceOnUse" color-interpolation-filters="sRGB">
<feFlood flood-opacity="0" result="BackgroundImageFix"/>
<feColorMatrix in="SourceAlpha" type="matrix" values="0 0 0 0 0 0 0 0 0 0 0 0 0 0 0 0 0 0 127 0" result="hardAlpha"/>
<feOffset dy="4"/>
<feGaussianBlur stdDeviation="2"/>
<feComposite in2="hardAlpha" operator="out"/>
<feColorMatrix type="matrix" values="0 0 0 0 0 0 0 0 0 0 0 0 0 0 0 0 0 0 0.5 0"/>
<feBlend mode="normal" in2="BackgroundImageFix" result="effect1_dropShadow_411_348"/>
<feBlend mode="normal" in="SourceGraphic" in2="effect1_dropShadow_411_348" result="shape"/>
</filter>
<filter id="filter9_d_411_348" x="12" y="68" width="32" height="61" filterUnits="userSpaceOnUse" color-interpolation-filters="sRGB">
<feFlood flood-opacity="0" result="BackgroundImageFix"/>
<feColorMatrix in="SourceAlpha" type="matrix" values="0 0 0 0 0 0 0 0 0 0 0 0 0 0 0 0 0 0 127 0" result="hardAlpha"/>
<feOffset dy="4"/>
<feGaussianBlur stdDeviation="2"/>
<feComposite in2="hardAlpha" operator="out"/>
<feColorMatrix type="matrix" values="0 0 0 0 0 0 0 0 0 0 0 0 0 0 0 0 0 0 0.5 0"/>
<feBlend mode="normal" in2="BackgroundImageFix" result="effect1_dropShadow_411_348"/>
<feBlend mode="normal" in="SourceGraphic" in2="effect1_dropShadow_411_348" result="shape"/>
</filter>
<filter id="filter10_d_411_348" x="73" y="68" width="32" height="61" filterUnits="userSpaceOnUse" color-interpolation-filters="sRGB">
<feFlood flood-opacity="0" result="BackgroundImageFix"/>
<feColorMatrix in="SourceAlpha" type="matrix" values="0 0 0 0 0 0 0 0 0 0 0 0 0 0 0 0 0 0 127 0" result="hardAlpha"/>
<feOffset dy="4"/>
<feGaussianBlur stdDeviation="2"/>
<feComposite in2="hardAlpha" operator="out"/>
<feColorMatrix type="matrix" values="0 0 0 0 0 0 0 0 0 0 0 0 0 0 0 0 0 0 0.5 0"/>
<feBlend mode="normal" in2="BackgroundImageFix" result="effect1_dropShadow_411_348"/>
<feBlend mode="normal" in="SourceGraphic" in2="effect1_dropShadow_411_348" result="shape"/>
</filter>
<filter id="filter11_d_411_348" x="134" y="68" width="32" height="61" filterUnits="userSpaceOnUse" color-interpolation-filters="sRGB">
<feFlood flood-opacity="0" result="BackgroundImageFix"/>
<feColorMatrix in="SourceAlpha" type="matrix" values="0 0 0 0 0 0 0 0 0 0 0 0 0 0 0 0 0 0 127 0" result="hardAlpha"/>
<feOffset dy="4"/>
<feGaussianBlur stdDeviation="2"/>
<feComposite in2="hardAlpha" operator="out"/>
<feColorMatrix type="matrix" values="0 0 0 0 0 0 0 0 0 0 0 0 0 0 0 0 0 0 0.5 0"/>
<feBlend mode="normal" in2="BackgroundImageFix" result="effect1_dropShadow_411_348"/>
<feBlend mode="normal" in="SourceGraphic" in2="effect1_dropShadow_411_348" result="shape"/>
</filter>
<filter id="filter12_d_411_348" x="195" y="68" width="32" height="61" filterUnits="userSpaceOnUse" color-interpolation-filters="sRGB">
<feFlood flood-opacity="0" result="BackgroundImageFix"/>
<feColorMatrix in="SourceAlpha" type="matrix" values="0 0 0 0 0 0 0 0 0 0 0 0 0 0 0 0 0 0 127 0" result="hardAlpha"/>
<feOffset dy="4"/>
<feGaussianBlur stdDeviation="2"/>
<feComposite in2="hardAlpha" operator="out"/>
<feColorMatrix type="matrix" values="0 0 0 0 0 0 0 0 0 0 0 0 0 0 0 0 0 0 0.5 0"/>
<feBlend mode="normal" in2="BackgroundImageFix" result="effect1_dropShadow_411_348"/>
<feBlend mode="normal" in="SourceGraphic" in2="effect1_dropShadow_411_348" result="shape"/>
</filter>
<filter id="filter13_d_411_348" x="256" y="68" width="32" height="61" filterUnits="userSpaceOnUse" color-interpolation-filters="sRGB">
<feFlood flood-opacity="0" result="BackgroundImageFix"/>
<feColorMatrix in="SourceAlpha" type="matrix" values="0 0 0 0 0 0 0 0 0 0 0 0 0 0 0 0 0 0 127 0" result="hardAlpha"/>
<feOffset dy="4"/>
<feGaussianBlur stdDeviation="2"/>
<feComposite in2="hardAlpha" operator="out"/>
<feColorMatrix type="matrix" values="0 0 0 0 0 0 0 0 0 0 0 0 0 0 0 0 0 0 0.5 0"/>
<feBlend mode="normal" in2="BackgroundImageFix" result="effect1_dropShadow_411_348"/>
<feBlend mode="normal" in="SourceGraphic" in2="effect1_dropShadow_411_348" result="shape"/>
</filter>
<filter id="filter14_d_411_348" x="317" y="68" width="32" height="61" filterUnits="userSpaceOnUse" color-interpolation-filters="sRGB">
<feFlood flood-opacity="0" result="BackgroundImageFix"/>
<feColorMatrix in="SourceAlpha" type="matrix" values="0 0 0 0 0 0 0 0 0 0 0 0 0 0 0 0 0 0 127 0" result="hardAlpha"/>
<feOffset dy="4"/>
<feGaussianBlur stdDeviation="2"/>
<feComposite in2="hardAlpha" operator="out"/>
<feColorMatrix type="matrix" values="0 0 0 0 0 0 0 0 0 0 0 0 0 0 0 0 0 0 0.5 0"/>
<feBlend mode="normal" in2="BackgroundImageFix" result="effect1_dropShadow_411_348"/>
<feBlend mode="normal" in="SourceGraphic" in2="effect1_dropShadow_411_348" result="shape"/>
</filter>
<filter id="filter15_d_411_348" x="378" y="68" width="32" height="61" filterUnits="userSpaceOnUse" color-interpolation-filters="sRGB">
<feFlood flood-opacity="0" result="BackgroundImageFix"/>
<feColorMatrix in="SourceAlpha" type="matrix" values="0 0 0 0 0 0 0 0 0 0 0 0 0 0 0 0 0 0 127 0" result="hardAlpha"/>
<feOffset dy="4"/>
<feGaussianBlur stdDeviation="2"/>
<feComposite in2="hardAlpha" operator="out"/>
<feColorMatrix type="matrix" values="0 0 0 0 0 0 0 0 0 0 0 0 0 0 0 0 0 0 0.5 0"/>
<feBlend mode="normal" in2="BackgroundImageFix" result="effect1_dropShadow_411_348"/>
<feBlend mode="normal" in="SourceGraphic" in2="effect1_dropShadow_411_348" result="shape"/>
</filter>
<filter id="filter16_d_411_348" x="439" y="68" width="32" height="61" filterUnits="userSpaceOnUse" color-interpolation-filters="sRGB">
<feFlood flood-opacity="0" result="BackgroundImageFix"/>
<feColorMatrix in="SourceAlpha" type="matrix" values="0 0 0 0 0 0 0 0 0 0 0 0 0 0 0 0 0 0 127 0" result="hardAlpha"/>
<feOffset dy="4"/>
<feGaussianBlur stdDeviation="2"/>
<feComposite in2="hardAlpha" operator="out"/>
<feColorMatrix type="matrix" values="0 0 0 0 0 0 0 0 0 0 0 0 0 0 0 0 0 0 0.5 0"/>
<feBlend mode="normal" in2="BackgroundImageFix" result="effect1_dropShadow_411_348"/>
<feBlend mode="normal" in="SourceGraphic" in2="effect1_dropShadow_411_348" result="shape"/>
</filter>
<filter id="filter17_d_411_348" x="500" y="68" width="32" height="61" filterUnits="userSpaceOnUse" color-interpolation-filters="sRGB">
<feFlood flood-opacity="0" result="BackgroundImageFix"/>
<feColorMatrix in="SourceAlpha" type="matrix" values="0 0 0 0 0 0 0 0 0 0 0 0 0 0 0 0 0 0 127 0" result="hardAlpha"/>
<feOffset dy="4"/>
<feGaussianBlur stdDeviation="2"/>
<feComposite in2="hardAlpha" operator="out"/>
<feColorMatrix type="matrix" values="0 0 0 0 0 0 0 0 0 0 0 0 0 0 0 0 0 0 0.5 0"/>
<feBlend mode="normal" in2="BackgroundImageFix" result="effect1_dropShadow_411_348"/>
<feBlend mode="normal" in="SourceGraphic" in2="effect1_dropShadow_411_348" result="shape"/>
</filter>
</defs>
</svg>
